<svg width="85" height="86" viewBox="0 0 85 86" fill="none" xmlns="http://www.w3.org/2000/svg">
<path d="M52.793 69.2305C54.6357 69.2305 56.1133 67.7363 56.1133 65.9102V21.501C56.1133 19.6582 54.6191 18.1807 52.793 18.1807H32.207C30.3643 18.1807 28.8867 19.6748 28.8867 21.501V65.9102C28.8867 67.7529 30.3809 69.2305 32.207 69.2305H52.793ZM30.5801 65.9102V21.501C30.5801 20.6045 31.3105 19.874 32.207 19.874H52.793C53.6895 19.874 54.4199 20.6045 54.4199 21.501V65.9102C54.4199 66.8066 53.6895 67.5371 52.793 67.5371H32.207C31.3105 67.5205 30.5967 66.8066 30.5801 65.9102Z" fill="#93A1C1"/>
<path d="M33.1367 33.5039H51.8467C52.3115 33.5039 52.6934 33.1221 52.6934 32.6572V22.4473C52.6934 21.9824 52.3115 21.6006 51.8467 21.6006H33.1367C32.6719 21.6006 32.29 21.9824 32.29 22.4473V32.6572C32.29 33.1221 32.6719 33.5039 33.1367 33.5039ZM51 31.7939H33.9834V28.3906H51V31.7939ZM33.9834 23.2939H51V26.6973H33.9834V23.2939Z" fill="#93A1C1"/>
<path d="M45.4721 50.4541L44.6255 51.9316C46.6675 53.1104 47.3647 55.7002 46.186 57.7422C45.0073 59.7842 42.4175 60.4814 40.3755 59.3027C38.3335 58.124 37.6362 55.5342 38.8149 53.4922C39.1802 52.8447 39.728 52.3135 40.3755 51.9316L39.5288 50.4541C36.6733 52.0977 35.7104 55.7334 37.354 58.5889C38.9975 61.4443 42.6333 62.4072 45.4887 60.7637C48.3442 59.1201 49.3071 55.4844 47.6636 52.6289C47.1323 51.7324 46.3852 50.9854 45.4721 50.4541Z" fill="#93A1C1"/>
<path d="M41.6533 47.9639H43.3633V55.6172H41.6533V47.9639Z" fill="#93A1C1"/>
<path d="M38.25 64.1338H40.8066V65.8438H38.25V64.1338Z" fill="#93A1C1"/>
<path d="M44.1934 64.1338H46.75V65.8438H44.1934V64.1338Z" fill="#93A1C1"/>
<path d="M42.5 35.1973C40.9561 35.1973 39.6113 36.2598 39.2129 37.7539H34.8301V39.4639H39.2129C39.6777 41.2734 41.5205 42.3691 43.3301 41.9043C44.5254 41.6055 45.4717 40.6592 45.7705 39.4639H50.1533V37.7539H45.7705C45.3887 36.2598 44.0439 35.1973 42.5 35.1973ZM42.5 40.3105C41.5537 40.3105 40.79 39.5469 40.79 38.6006C40.79 37.6543 41.5537 36.8906 42.5 36.8906C43.4463 36.8906 44.21 37.6543 44.21 38.6006C44.21 39.5469 43.4463 40.3105 42.5 40.3105Z" fill="#93A1C1"/>
</svg>
