<svg width="85" height="86" viewBox="0 0 85 86" fill="none" xmlns="http://www.w3.org/2000/svg">
<path d="M65.3105 45.1748C64.9453 45.1748 64.6299 45.4736 64.6299 45.8555V64.5654C64.6299 65.2295 64.082 65.7773 63.418 65.7773H22.3955C21.7314 65.7773 21.1836 65.2295 21.1836 64.5654V45.8555C21.1836 45.4902 20.8848 45.1748 20.5029 45.1748C20.1211 45.1748 19.8223 45.4736 19.8223 45.8555V64.5654C19.8223 65.9766 20.9678 67.1221 22.3789 67.1221H63.418C64.8291 67.1221 65.9746 65.9766 65.9746 64.5654V45.8555C65.9912 45.4736 65.6758 45.1748 65.3105 45.1748Z" fill="#93A1C1"/>
<path d="M63.418 20.9697H22.3955C20.9844 20.9697 19.8389 22.1152 19.8389 23.5264V42.2363C19.8389 42.6016 20.1377 42.917 20.5195 42.917C20.9014 42.917 21.2002 42.6182 21.2002 42.2363V23.5264C21.2002 22.8623 21.748 22.3145 22.4121 22.3145H63.418C64.082 22.3145 64.6299 22.8623 64.6299 23.5264V42.2363C64.6299 42.6016 64.9287 42.917 65.3105 42.917C65.6758 42.917 65.9912 42.6182 65.9912 42.2363V23.5264C65.9912 22.1152 64.8291 20.9697 63.418 20.9697Z" fill="#93A1C1"/>
<path d="M56.8271 30.1338C53.1084 26.415 48.1777 24.373 42.915 24.373C37.6523 24.373 32.7217 26.415 29.0029 30.1338C25.2842 33.8525 23.2422 38.7832 23.2422 44.0459C23.2422 49.3086 25.2842 54.2393 29.0029 57.958C32.7217 61.6768 37.6523 63.7187 42.915 63.7187C48.1777 63.7187 53.1084 61.6768 56.8271 57.958C60.5459 54.2393 62.5879 49.3086 62.5879 44.0459C62.5879 38.7832 60.5293 33.8525 56.8271 30.1338ZM42.915 62.374C32.8047 62.374 24.5869 54.1562 24.5869 44.0459C24.5869 33.9355 32.8047 25.7178 42.915 25.7178C53.0254 25.7178 61.2432 33.9355 61.2432 44.0459C61.2432 54.1562 53.0088 62.374 42.915 62.374Z" fill="#93A1C1"/>
<path d="M60.6787 59.0205C59.2676 59.0205 58.1055 60.166 58.1055 61.5938C58.1055 63.0049 59.251 64.167 60.6787 64.167C62.0898 64.167 63.252 63.0215 63.252 61.5938C63.252 60.166 62.1064 59.0205 60.6787 59.0205ZM60.6787 62.8057C59.998 62.8057 59.4668 62.2578 59.4668 61.5938C59.4668 60.9131 60.0146 60.3818 60.6787 60.3818C61.3594 60.3818 61.8906 60.9297 61.8906 61.5938C61.9072 62.2578 61.3594 62.8057 60.6787 62.8057Z" fill="#93A1C1"/>
<path d="M25.1348 59.0205C23.7236 59.0205 22.5615 60.166 22.5615 61.5938C22.5615 63.0049 23.707 64.167 25.1348 64.167C26.5459 64.167 27.708 63.0215 27.708 61.5938C27.708 60.166 26.5459 59.0205 25.1348 59.0205ZM25.1348 62.8057C24.4541 62.8057 23.9229 62.2578 23.9229 61.5938C23.9229 60.9131 24.4707 60.3818 25.1348 60.3818C25.8154 60.3818 26.3467 60.9297 26.3467 61.5938C26.3467 62.2578 25.7988 62.8057 25.1348 62.8057Z" fill="#93A1C1"/>
<path d="M25.1348 23.3604C23.7236 23.3604 22.5615 24.5059 22.5615 25.9336C22.5615 27.3447 23.707 28.5068 25.1348 28.5068C26.5459 28.5068 27.708 27.3613 27.708 25.9336C27.708 24.5225 26.5459 23.3604 25.1348 23.3604ZM25.1348 27.1455C24.4541 27.1455 23.9229 26.5977 23.9229 25.9336C23.9229 25.2695 24.4707 24.7217 25.1348 24.7217C25.8154 24.7217 26.3467 25.2695 26.3467 25.9336C26.3467 26.5977 25.7988 27.1455 25.1348 27.1455Z" fill="#93A1C1"/>
<path d="M60.6787 23.3604C59.2676 23.3604 58.1055 24.5059 58.1055 25.9336C58.1055 27.3447 59.251 28.5068 60.6787 28.5068C62.0898 28.5068 63.252 27.3613 63.252 25.9336C63.252 24.5225 62.1064 23.3604 60.6787 23.3604ZM60.6787 27.1455C59.998 27.1455 59.4668 26.5977 59.4668 25.9336C59.4668 25.2695 60.0146 24.7217 60.6787 24.7217C61.3594 24.7217 61.8906 25.2695 61.8906 25.9336C61.8906 26.5977 61.3594 27.1455 60.6787 27.1455Z" fill="#93A1C1"/>
<path d="M59.7985 43.1163C59.7487 42.087 58.9684 41.2403 57.9391 41.0909C56.6442 40.8916 55.1501 40.792 53.4733 40.792C52.1618 40.792 50.9499 40.8584 49.987 40.9248C51.5475 39.9121 53.5729 39.1485 55.9968 38.6836C56.694 38.5508 57.2751 38.086 57.5573 37.4385C57.8561 36.7911 57.8063 36.0274 57.4411 35.4297C56.5612 33.9522 55.4655 32.6075 54.1706 31.462C53.7722 31.1133 53.2575 30.9141 52.7263 30.9141C52.2614 30.9141 51.7966 31.0635 51.4313 31.3457C49.1901 32.9893 47.0319 35.2969 45.6872 36.8575C46.069 35.0313 46.9655 33.0723 48.36 31.0137C48.7585 30.4161 48.8415 29.7022 48.5925 29.0215C48.3434 28.3575 47.779 27.8594 47.0817 27.6768C45.4216 27.2618 43.6784 27.0791 41.9684 27.1787C40.9557 27.2286 40.0925 28.0088 39.9431 29.0381C39.528 31.794 39.6276 34.9317 39.777 36.9903C38.7643 35.4297 38.0007 33.4043 37.5358 30.9805C37.3366 29.9678 36.4401 29.2207 35.3942 29.2207C34.9958 29.2207 34.614 29.3203 34.2819 29.5362C32.8044 30.4161 31.4597 31.5118 30.3141 32.8067C29.6335 33.5704 29.5837 34.7159 30.1979 35.5459C31.8415 37.7871 34.1491 39.9453 35.7097 41.2901C33.8835 40.9082 31.9245 40.0118 29.8659 38.6172C29.5007 38.3682 29.0856 38.252 28.654 38.252C27.6579 38.252 26.778 38.9327 26.529 39.8955C26.0974 41.5723 25.9313 43.2823 26.0309 45.0088C26.0807 46.0215 26.861 46.8848 27.8903 47.0342C29.1852 47.2334 30.6794 47.333 32.3561 47.333C33.6677 47.333 34.8796 47.2666 35.8425 47.2002C34.2819 48.2129 32.2565 48.9766 29.8327 49.4414C29.1354 49.5743 28.5544 50.0391 28.2722 50.6866C27.9733 51.334 28.0231 52.0977 28.3884 52.6953C29.2682 54.1729 30.364 55.5176 31.6589 56.6631C32.0573 57.0118 32.572 57.211 33.1032 57.211C33.5681 57.211 34.0329 57.0616 34.3981 56.7793C36.6393 55.1358 38.7975 52.8282 40.1423 51.2676C39.7604 53.0938 38.864 55.0528 37.486 57.1114C37.0876 57.709 37.0046 58.4229 37.2536 59.1036C37.5026 59.7676 38.0671 60.2657 38.7643 60.4483C40.1257 60.7969 41.5368 60.9629 42.9479 60.9629C43.2634 60.9629 43.5788 60.9463 43.8776 60.9297C44.8903 60.8799 45.7536 60.0996 45.903 59.0703C46.3181 56.3145 46.2184 53.1768 46.069 51.1182C47.0817 52.6787 47.8454 54.7041 48.3102 57.128C48.5095 58.1407 49.4059 58.8877 50.4518 58.8877C50.8503 58.8877 51.2321 58.7881 51.5641 58.5723C53.0417 57.6924 54.3864 56.5967 55.5319 55.3018C56.2126 54.5381 56.2624 53.3926 55.6481 52.5625C54.0046 50.3213 51.697 48.1631 50.1364 46.8184C51.9626 47.2002 53.9216 48.0967 55.9802 49.4912C56.3454 49.7403 56.7604 49.8565 57.1921 49.8565C58.1882 49.8565 59.0681 49.1758 59.3171 48.2129C59.7321 46.5528 59.8981 44.8428 59.7985 43.1163ZM52.2448 32.4082C52.3942 32.292 52.5602 32.2422 52.7429 32.2422C52.9421 32.2422 53.1413 32.3086 53.2907 32.4414C54.4694 33.5039 55.4821 34.7325 56.2956 36.0938C56.4284 36.3262 56.445 36.6084 56.3454 36.8575C56.2292 37.1065 56.03 37.2725 55.7477 37.3223C53.0417 37.8536 50.7839 38.7168 49.0407 39.9121C48.4431 39.0157 47.6462 38.2686 46.7165 37.7041C48.0114 36.21 50.1032 33.9854 52.2448 32.4082ZM41.2878 29.2207C41.3542 28.8389 41.6696 28.5401 42.0515 28.5069C42.3337 28.4903 42.6325 28.4903 42.9147 28.4903C44.2097 28.4903 45.5046 28.6563 46.7663 28.9717C47.0319 29.0381 47.2477 29.2373 47.3474 29.4864C47.447 29.7354 47.4138 30.0176 47.2643 30.2334C45.7204 32.5245 44.7409 34.7325 44.3425 36.8077C44.3093 36.8077 44.2595 36.7911 44.2263 36.7911C44.1598 36.7745 44.0768 36.7578 44.0104 36.7578C43.9606 36.7578 43.9108 36.7412 43.8444 36.7412C43.778 36.7412 43.7116 36.7246 43.6452 36.7246C43.5788 36.7246 43.5124 36.708 43.446 36.708C43.3962 36.708 43.3464 36.6914 43.28 36.6914C43.1638 36.6914 43.0309 36.6748 42.9147 36.6748C42.7985 36.6748 42.6823 36.6748 42.5827 36.6914C42.5661 36.6914 42.5329 36.6914 42.5163 36.6914C42.4167 36.6914 42.3005 36.708 42.2009 36.708C42.1677 36.708 42.1511 36.708 42.1179 36.7246C42.0182 36.7412 41.9352 36.7412 41.8356 36.7578C41.8024 36.7578 41.7692 36.7745 41.7526 36.7745C41.6696 36.7911 41.5866 36.8077 41.5036 36.8243C41.4704 36.8243 41.4206 36.8409 41.3874 36.8409C41.3044 36.8575 41.2214 36.8741 41.1384 36.8907C40.989 34.8985 40.8727 31.8438 41.2878 29.2207ZM32.3395 45.9551C30.7292 45.9551 29.3015 45.8555 28.0729 45.6729C27.6911 45.6065 27.3923 45.2911 27.3591 44.9092C27.2761 43.3155 27.4255 41.7383 27.8239 40.1944C27.9235 39.8291 28.2556 39.5635 28.6374 39.5635C28.8034 39.5635 28.9528 39.6133 29.0856 39.6963C31.3766 41.2403 33.5847 42.2198 35.6599 42.6182C35.6599 42.6514 35.6432 42.7012 35.6432 42.7344C35.6266 42.8008 35.61 42.8838 35.61 42.9502C35.61 43 35.5934 43.0498 35.5934 43.1163C35.5934 43.1827 35.5768 43.2491 35.5768 43.3155C35.5768 43.3819 35.5602 43.4483 35.5602 43.5147C35.5602 43.5645 35.5436 43.6143 35.5436 43.6807C35.5436 43.7969 35.527 43.9297 35.527 44.0459C35.527 44.1621 35.527 44.2784 35.5436 44.378C35.5436 44.3946 35.5436 44.4278 35.5436 44.4444C35.5436 44.544 35.5602 44.6602 35.5602 44.7598C35.5602 44.793 35.5602 44.8096 35.5768 44.8428C35.5934 44.9424 35.5934 45.0254 35.61 45.125C35.61 45.1582 35.6266 45.1914 35.6266 45.208C35.6433 45.291 35.6599 45.3741 35.6765 45.4571C35.6765 45.5069 35.6931 45.5401 35.7097 45.5899C35.7263 45.6729 35.7429 45.7559 35.7595 45.8389C34.8132 45.8887 33.6179 45.9551 32.3395 45.9551ZM31.277 34.7159C31.0446 34.4004 31.0612 33.9522 31.3102 33.67C32.3727 32.4912 33.6013 31.4786 34.9626 30.6651C35.0954 30.5821 35.2448 30.5489 35.3942 30.5489C35.7927 30.5489 36.1413 30.8311 36.2077 31.2129C36.739 33.919 37.6022 36.1768 38.7975 37.92C37.9011 38.5176 37.154 39.3145 36.5895 40.2442C35.0788 38.9327 32.8542 36.8575 31.277 34.7159ZM33.5681 55.6836C33.4186 55.7998 33.2526 55.8496 33.07 55.8496C32.8708 55.8496 32.6716 55.7832 32.5222 55.6504C31.3434 54.5879 30.3307 53.3594 29.5173 51.9981C29.3845 51.7657 29.3679 51.4834 29.4675 51.2344C29.5837 50.9854 29.7829 50.8194 30.0651 50.7696C32.7712 50.2383 35.029 49.375 36.7722 48.1797C37.3698 49.0762 38.1667 49.8233 39.0964 50.3877C37.8015 51.8819 35.7263 54.1065 33.5681 55.6836ZM44.5417 58.8711C44.4753 59.253 44.1599 59.5518 43.778 59.585C42.2009 59.668 40.6071 59.5186 39.0632 59.1202C38.7975 59.0537 38.5817 58.8545 38.4821 58.6055C38.3825 58.3565 38.4157 58.0743 38.5651 57.8584C40.1091 55.5674 41.0886 53.3594 41.487 51.2842C41.5202 51.2842 41.57 51.3008 41.6032 51.3008C41.6696 51.3174 41.7526 51.334 41.819 51.334C41.8688 51.334 41.9186 51.3506 41.985 51.3506C42.0515 51.3506 42.1179 51.3672 42.1843 51.3672C42.2507 51.3672 42.3171 51.3838 42.4001 51.3838C42.4499 51.3838 42.4997 51.4004 42.5495 51.4004C42.6657 51.4004 42.7985 51.417 42.9147 51.417C43.0309 51.417 43.1472 51.417 43.2468 51.4004C43.2634 51.4004 43.2966 51.4004 43.3132 51.4004C43.4128 51.4004 43.529 51.3838 43.6286 51.3838C43.6618 51.3838 43.6784 51.3838 43.7116 51.3672C43.8112 51.3506 43.8942 51.3506 43.9938 51.334C44.027 51.334 44.0436 51.3174 44.0768 51.3174C44.1598 51.3008 44.2429 51.2842 44.3259 51.2676C44.3591 51.2676 44.4089 51.251 44.4421 51.251C44.5251 51.2344 44.6081 51.2178 44.6911 51.2012C44.8405 53.1934 44.9401 56.2481 44.5417 58.8711ZM46.152 49.126C46.0856 49.1758 46.0192 49.209 45.9362 49.2588C45.9362 49.2588 45.9362 49.2588 45.9196 49.2588C45.8532 49.292 45.7868 49.3418 45.7038 49.375C45.488 49.4912 45.2722 49.5909 45.0397 49.6739C44.9567 49.7071 44.8737 49.7403 44.7907 49.7569H44.7741C44.6911 49.7735 44.6247 49.8067 44.5417 49.8233C44.5251 49.8233 44.5085 49.8399 44.4919 49.8399C44.4255 49.8565 44.3591 49.8731 44.2927 49.8897C44.2595 49.8897 44.2429 49.9063 44.2097 49.9063C44.1432 49.9229 44.0934 49.9395 44.027 49.9395C43.9938 49.9395 43.944 49.9561 43.9108 49.9561C43.861 49.9727 43.8112 49.9727 43.7614 49.9893C43.7116 49.9893 43.6618 50.0059 43.612 50.0059C43.5622 50.0059 43.529 50.0225 43.4792 50.0225C43.4128 50.0225 43.363 50.0391 43.2966 50.0391C43.2634 50.0391 43.2302 50.0391 43.197 50.0391C43.0974 50.0391 42.9977 50.0391 42.8981 50.0391C42.7985 50.0391 42.7155 50.0391 42.6159 50.0391C42.5827 50.0391 42.5661 50.0391 42.5329 50.0391C42.4665 50.0391 42.4001 50.0225 42.3337 50.0225C42.3005 50.0225 42.2839 50.0225 42.2507 50.0225C42.1677 50.0059 42.0847 50.0059 41.985 49.9893C41.9684 49.9893 41.9352 49.9727 41.9186 49.9727C41.8522 49.9561 41.7858 49.9561 41.736 49.9395C41.7028 49.9395 41.6696 49.9229 41.6198 49.9229C41.57 49.9063 41.5202 49.9063 41.4704 49.8897C41.4372 49.8731 41.404 49.8731 41.3708 49.8565C41.0554 49.7735 40.7399 49.6573 40.4411 49.5244C39.3786 49.043 38.4655 48.2627 37.8347 47.2832C37.7848 47.2168 37.7516 47.1504 37.7018 47.084C37.7018 47.084 37.7018 47.084 37.7018 47.0674C37.6686 47.001 37.6188 46.9346 37.5856 46.8516C37.4694 46.6358 37.3698 46.42 37.2868 46.1875C37.2536 46.1045 37.2204 46.0215 37.2038 45.9385V45.9219C37.1706 45.8389 37.154 45.7725 37.1374 45.6895C37.1374 45.6729 37.1208 45.6563 37.1208 45.6397C37.1042 45.5733 37.0876 45.5069 37.071 45.4405C37.071 45.4073 37.0544 45.3907 37.0544 45.3575C37.0378 45.2911 37.0212 45.2412 37.0212 45.1748C37.0212 45.1416 37.0046 45.0918 37.0046 45.0586C36.988 45.0088 36.988 44.959 36.9714 44.8926C36.9714 44.8428 36.9548 44.793 36.9548 44.7432C36.9548 44.6934 36.9382 44.6602 36.9382 44.6104C36.9382 44.544 36.9216 44.4942 36.9216 44.4278C36.9216 44.3946 36.9216 44.3614 36.9216 44.3116C36.9216 44.212 36.9216 44.1123 36.9216 44.0127C36.9216 43.9131 36.9216 43.8301 36.9216 43.7305C36.9216 43.6973 36.9216 43.6807 36.9216 43.6475C36.9216 43.5811 36.9382 43.5147 36.9382 43.4483C36.9382 43.4151 36.9382 43.3985 36.9382 43.3653C36.9548 43.2823 36.9548 43.1993 36.9714 43.0996C36.9714 43.0664 36.988 43.0498 36.988 43.0166C37.0046 42.9502 37.0046 42.8838 37.0212 42.834C37.0212 42.8008 37.0378 42.7676 37.0378 42.7178C37.0544 42.668 37.0544 42.6182 37.071 42.5684C37.0876 42.5352 37.0876 42.502 37.1042 42.4688C37.1872 42.1534 37.3034 41.8379 37.4362 41.5391C37.9177 40.4766 38.6979 39.5635 39.6774 38.9327C39.7438 38.8828 39.8102 38.8496 39.8766 38.7998C39.8766 38.7998 39.8766 38.7998 39.8932 38.7998C39.9597 38.7666 40.0261 38.7168 40.1091 38.6836C40.3249 38.5674 40.5407 38.4678 40.7731 38.3848C40.8561 38.3516 40.9391 38.3184 41.0222 38.3018H41.0388C41.1218 38.2686 41.1882 38.252 41.2712 38.2354C41.2878 38.2354 41.3044 38.2188 41.321 38.2188C41.3874 38.2022 41.4538 38.1856 41.5202 38.169C41.5534 38.169 41.57 38.1524 41.6032 38.1524C41.6696 38.1358 41.7194 38.1192 41.7858 38.1192C41.819 38.1192 41.8688 38.1026 41.902 38.1026C41.9518 38.086 42.0016 38.086 42.0681 38.0694C42.1179 38.0694 42.1677 38.0528 42.2175 38.0528C42.2673 38.0528 42.3005 38.0362 42.3503 38.0362C42.4167 38.0362 42.4665 38.0196 42.5329 38.0196C42.5661 38.0196 42.5993 38.0196 42.6491 38.0196C42.7487 38.0196 42.8483 38.0196 42.9479 38.0196C43.0475 38.0196 43.1306 38.0196 43.2302 38.0196C43.2634 38.0196 43.28 38.0196 43.3132 38.0196C43.3796 38.0196 43.446 38.0362 43.5124 38.0362C43.5456 38.0362 43.5622 38.0362 43.5954 38.0362C43.6784 38.0528 43.7614 38.0528 43.861 38.0694C43.8942 38.0694 43.9108 38.086 43.944 38.086C44.0104 38.1026 44.0768 38.1026 44.1266 38.1192C44.1598 38.1192 44.1931 38.1358 44.2429 38.1358C44.2927 38.1524 44.3425 38.1524 44.3923 38.169C44.4255 38.1856 44.4587 38.1856 44.4919 38.2022C44.8073 38.2852 45.1227 38.4014 45.4216 38.5342C46.4841 39.0157 47.3972 39.7959 48.028 40.7754C48.0778 40.8418 48.111 40.9082 48.1608 40.9746C48.1608 40.9746 48.1608 40.9746 48.1608 40.9912C48.194 41.0577 48.2438 41.1241 48.277 41.2071C48.3932 41.4229 48.4929 41.6387 48.5759 41.8711C48.6091 41.9541 48.6423 42.0371 48.6589 42.1202V42.1368C48.6755 42.2198 48.7087 42.2862 48.7253 42.3692C48.7253 42.3858 48.7419 42.4024 48.7419 42.419C48.7585 42.4854 48.7751 42.5518 48.7917 42.6182C48.7917 42.6514 48.8083 42.668 48.8083 42.7012C48.8249 42.7676 48.8415 42.8174 48.8415 42.8838C48.8415 42.917 48.8581 42.9668 48.8581 43C48.8747 43.0498 48.8747 43.0996 48.8913 43.1661C48.8913 43.2159 48.9079 43.2657 48.9079 43.3155C48.9079 43.3653 48.9245 43.3985 48.9245 43.4483C48.9245 43.5147 48.9411 43.5645 48.9411 43.6309C48.9411 43.6641 48.9411 43.6973 48.9411 43.7471C48.9411 43.8467 48.9411 43.9463 48.9411 44.0459C48.9411 44.1455 48.9411 44.2286 48.9411 44.3282C48.9411 44.3614 48.9411 44.378 48.9411 44.4112C48.9411 44.4776 48.9245 44.544 48.9245 44.6104C48.9245 44.6436 48.9245 44.6602 48.9245 44.6934C48.9079 44.7764 48.9079 44.8594 48.8913 44.959C48.8913 44.9922 48.8747 45.0088 48.8747 45.042C48.8581 45.1084 48.8581 45.1748 48.8415 45.2246C48.8415 45.2578 48.8249 45.2911 48.8249 45.3409C48.8083 45.3907 48.8083 45.4405 48.7917 45.4903C48.7751 45.5235 48.7751 45.5567 48.7585 45.5899C48.6755 45.9053 48.5593 46.2207 48.4265 46.5196C47.9284 47.5821 47.1481 48.4952 46.152 49.126ZM54.5524 53.376C54.7849 53.6914 54.7682 54.1397 54.5192 54.4219C53.4567 55.6006 52.2282 56.6133 50.8669 57.4268C50.7341 57.5098 50.5847 57.543 50.4352 57.543C50.0368 57.543 49.6882 57.2608 49.6218 56.8789C49.0905 54.1729 48.2272 51.9151 47.0319 50.1719C47.9284 49.5743 48.6755 48.7774 49.2399 47.8477C50.7341 49.1592 52.9587 51.2344 54.5524 53.376ZM57.9889 47.8975C57.8893 48.2627 57.5573 48.5284 57.1755 48.5284C57.0095 48.5284 56.86 48.4786 56.7272 48.3955C54.4362 46.8516 52.2282 45.8721 50.153 45.4737C50.153 45.4405 50.1696 45.3907 50.1696 45.3575C50.1862 45.2911 50.2028 45.208 50.2028 45.1416C50.2028 45.0918 50.2194 45.0254 50.2194 44.9756C50.2194 44.9092 50.236 44.8428 50.236 44.7764C50.236 44.71 50.2526 44.6436 50.2526 44.5772C50.2526 44.5274 50.2692 44.4776 50.2692 44.4278C50.2692 44.3116 50.2858 44.1787 50.2858 44.0625C50.2858 43.9463 50.2858 43.8301 50.2692 43.7305C50.2692 43.7139 50.2692 43.6807 50.2692 43.6641C50.2692 43.5645 50.2526 43.4483 50.2526 43.3487C50.2526 43.3155 50.2526 43.2989 50.236 43.2657C50.2194 43.1661 50.2194 43.083 50.2028 42.9834C50.2028 42.9502 50.1862 42.917 50.1862 42.9004C50.1696 42.8174 50.153 42.7344 50.1364 42.6514C50.1364 42.6016 50.1198 42.5684 50.1032 42.5186C50.0866 42.4356 50.07 42.3526 50.0534 42.2696C50.9831 42.2032 52.1784 42.1368 53.4567 42.1368C55.0671 42.1368 56.4948 42.2364 57.7233 42.419C58.1052 42.4854 58.404 42.8008 58.4372 43.1827C58.5368 44.7764 58.3874 46.3536 57.9889 47.8975Z" fill="#93A1C1"/>
</svg>
