<svg width="85" height="86" viewBox="0 0 85 86" fill="none" xmlns="http://www.w3.org/2000/svg">
<g clip-path="url(#clip0_17_18467)">
<path d="M85 0.5H0V85.5H85V0.5Z" fill="white"/>
<path fill-rule="evenodd" clip-rule="evenodd" d="M42.5001 21.1429C34.4526 21.1429 27.9287 27.6667 27.9287 35.7143V50.2857C27.9287 58.3333 34.4526 64.8572 42.5001 64.8572C50.5477 64.8572 57.0716 58.3333 57.0716 50.2857V35.7143C57.0716 27.6667 50.5477 21.1429 42.5001 21.1429Z" stroke="#93A1C1" stroke-width="2"/>
<path d="M42.5 22.3572V28.439M42.5 35.8092V40.5715" stroke="#93A1C1" stroke-width="2" stroke-linecap="square"/>
<path d="M47.3569 32.0714C47.3569 29.3889 45.1822 27.2143 42.4997 27.2143C39.8172 27.2143 37.6426 29.3889 37.6426 32.0714C37.6426 34.754 39.8172 36.9286 42.4997 36.9286C45.1822 36.9286 47.3569 34.754 47.3569 32.0714Z" fill="white"/>
<path d="M46.1422 32.0714C46.1422 30.0596 44.5112 28.4286 42.4993 28.4286C40.4874 28.4286 38.8564 30.0596 38.8564 32.0714C38.8564 34.0833 40.4874 35.7143 42.4993 35.7143C44.5112 35.7143 46.1422 34.0833 46.1422 32.0714Z" stroke="#93A1C1" stroke-width="2"/>
<path d="M28.5361 41.1786H56.4647" stroke="#93A1C1" stroke-width="2" stroke-linecap="square"/>
</g>
<defs>
<clipPath id="clip0_17_18467">
<rect width="85" height="85" fill="white" transform="translate(0 0.5)"/>
</clipPath>
</defs>
</svg>
