<svg width="85" height="86" viewBox="0 0 85 86" fill="none" xmlns="http://www.w3.org/2000/svg">
<path d="M67.3622 28.4614H27.1643V24.176C27.1643 22.7593 26.0132 21.6083 24.5965 21.6083H17.7611C17.283 21.6083 16.9111 21.9979 16.9111 22.4583V25.876C16.9111 26.3541 17.3007 26.726 17.7611 26.726H22.0465V31.8614H19.4788C19.0007 31.8614 18.6288 32.251 18.6288 32.7114C18.6288 33.1895 19.0184 33.5614 19.4788 33.5614H22.0465V34.4114H19.4788C19.0007 34.4114 18.6288 34.801 18.6288 35.2614V47.2322C18.6288 47.7104 19.0184 48.0822 19.4788 48.0822H22.0465V48.9322H19.4788C19.0007 48.9322 18.6288 49.3218 18.6288 49.7822C18.6288 50.2604 19.0184 50.6322 19.4788 50.6322H22.0465V63.4708C22.0465 63.9489 22.4361 64.3208 22.8965 64.3208H26.3143C26.7924 64.3208 27.1643 63.9312 27.1643 63.4708V57.4854H31.4497V61.7708C31.4497 62.2489 31.8393 62.6208 32.2997 62.6208H42.5705C43.0486 62.6208 43.4205 62.2312 43.4205 61.7708V60.9208C43.4205 60.4427 43.8101 60.0708 44.2705 60.0708C44.7486 60.0708 45.1205 60.4604 45.1205 60.9208V61.7708C45.1205 62.2489 45.5101 62.6208 45.9705 62.6208H63.0768C63.5549 62.6208 63.9268 62.2312 63.9268 61.7708V57.4854H67.3445C67.8226 57.4854 68.1945 57.0958 68.1945 56.6354V29.3114C68.2122 28.8333 67.8403 28.4614 67.3622 28.4614ZM22.0288 46.4176H20.3111V36.1468H22.0288V46.4176ZM25.4465 62.6739H23.7288V25.8937C23.7288 25.4156 23.3393 25.0437 22.8788 25.0437H18.5934V23.326H24.5788C25.057 23.326 25.4288 23.7156 25.4288 24.176V62.6739H25.4465ZM62.2268 60.9562H60.5091V58.4062H58.7913V60.9739H57.0736V58.4062H55.3559V60.9739H53.6382V58.4062H51.9205V60.9739H50.2028V58.4062H48.4851V60.9739H46.7674C46.7674 59.5572 45.6163 58.4062 44.1997 58.4062C42.783 58.4062 41.632 59.5572 41.632 60.9739H39.9143V58.4062H38.1965V60.9739H36.4788V58.4062H34.7611V60.9739H33.0434V57.5562H62.1205V60.9562H62.2268ZM66.5122 55.8385H27.1643V30.1614H66.5122V55.8385Z" fill="#93A1C1"/>
<path d="M42.4288 48.702C44.4298 52.0666 48.06 54.1208 51.9736 54.1208C53.9746 54.1208 55.9402 53.5718 57.658 52.5447H57.6757C59.2517 51.5885 60.5798 50.2604 61.5184 48.6843C61.5538 48.6312 61.5892 48.5781 61.6069 48.5249C63.608 45.0541 63.5725 40.751 61.5007 37.3156C58.384 32.0562 51.6017 30.3208 46.3423 33.4374C46.3246 33.4551 46.2892 33.4729 46.2715 33.4729C41.0121 36.5895 39.2767 43.3718 42.3934 48.6312C42.3934 48.6489 42.4111 48.6666 42.4288 48.702ZM46.3777 50.5614C45.5277 49.9416 44.784 49.1624 44.1819 48.2947L45.8111 46.8781C46.484 46.2937 47.2809 45.8687 48.1309 45.6208L49.4059 45.2666L49.4236 45.2843L48.733 45.9926C47.9361 46.8072 47.334 47.7989 46.9621 48.8791L46.3777 50.5614ZM50.5746 50.5968L50.9111 52.3499C49.8663 52.226 48.8392 51.9426 47.883 51.4645L48.5736 49.4281C48.8569 48.5781 49.335 47.8166 49.9548 47.1791L50.8934 46.2229H50.9111L50.6632 47.1791C50.3798 48.3124 50.3444 49.4635 50.5746 50.5968ZM52.6642 52.3676L52.2569 50.2604C52.0798 49.3926 52.1152 48.4895 52.3277 47.6218L52.6465 46.3468H52.6819L52.9475 47.2854C53.2663 48.3833 53.8152 49.4104 54.559 50.2781L55.7277 51.6239C54.7538 52.0489 53.7267 52.2968 52.6642 52.3676ZM57.2684 50.7739L55.8517 49.1447C55.2673 48.4718 54.8423 47.6749 54.5944 46.8249L54.2402 45.5499L54.258 45.5322L54.9663 46.2229C55.7809 47.0197 56.7725 47.6218 57.8527 47.9937L59.535 48.5604C58.8975 49.4281 58.1361 50.1718 57.2684 50.7739ZM60.4382 47.0906L58.4017 46.3999C57.5517 46.1166 56.7902 45.6385 56.1527 45.0187L55.1965 44.0801V44.0624L56.1527 44.3104C57.2684 44.5937 58.4194 44.6291 59.5527 44.3989L61.3059 44.0624C61.1996 45.1072 60.8986 46.1343 60.4382 47.0906ZM60.5798 39.2281C61.0048 40.202 61.2527 41.2291 61.3413 42.2916L59.234 42.6989C58.3663 42.876 57.4632 42.8406 56.5955 42.6281L55.3205 42.3093V42.2739L56.259 42.0083C57.3569 41.6895 58.384 41.1406 59.2517 40.3968L60.5798 39.2281ZM57.5517 35.4385C58.4017 36.0583 59.1455 36.8374 59.7475 37.7051L58.1184 39.1218C57.4455 39.7062 56.6486 40.1312 55.7986 40.3791L54.5236 40.7333L54.5059 40.7156L55.1965 40.0072C55.9934 39.1926 56.5955 38.201 56.9673 37.1208L57.5517 35.4385ZM53.3548 35.4031L53.0184 33.6499C54.0632 33.7739 55.0902 34.0749 56.0465 34.5354L55.3559 36.5718C55.0725 37.4218 54.5944 38.1833 53.9746 38.8208L53.0361 39.777H53.0184L53.2663 38.8208C53.5496 37.6874 53.585 36.5364 53.3548 35.4031ZM53.6736 42.9999C53.6736 43.9385 52.9121 44.7176 51.9559 44.7176C50.9996 44.7176 50.2382 43.9562 50.2382 42.9999C50.2382 42.0437 50.9996 41.2822 51.9559 41.2822C52.9121 41.2822 53.6736 42.0614 53.6736 42.9999ZM51.2652 33.6322L51.6725 35.7395C51.8496 36.6072 51.8142 37.5104 51.6017 38.3781L51.283 39.6531H51.2475L50.9819 38.7145C50.6632 37.6166 50.1142 36.5895 49.3705 35.7395L48.2017 34.3937C49.1757 33.951 50.2027 33.7031 51.2652 33.6322ZM46.6788 35.226L48.0955 36.8551C48.6798 37.5281 49.1048 38.3249 49.3527 39.1749L49.7069 40.4499L49.6892 40.4676L48.9809 39.777C48.1663 38.9801 47.1746 38.3781 46.0944 38.0062L44.4121 37.4395C45.0319 36.5718 45.7934 35.8281 46.6788 35.226ZM43.4913 38.9093L45.5277 39.5999C46.3777 39.8833 47.1392 40.3614 47.7767 40.9812L48.733 41.9197V41.9374L47.7767 41.6895C46.6611 41.4062 45.51 41.3708 44.3767 41.601L42.6236 41.9374C42.7298 40.8926 43.0309 39.8656 43.4913 38.9093ZM44.6955 43.2833C45.5632 43.1062 46.4663 43.1416 47.334 43.3541L48.609 43.6729V43.7083L47.6705 43.9739C46.5725 44.2926 45.5455 44.8416 44.6777 45.5854L43.3319 46.7541C42.9069 45.7801 42.659 44.7531 42.5705 43.6906L44.6955 43.2833Z" fill="#93A1C1"/>
<path d="M37.4174 34.4468H30.582V41.2822H37.4174V34.4468ZM35.7174 39.5822H32.2997V36.1645H35.7174V39.5822Z" fill="#93A1C1"/>
<path d="M37.4174 43H30.582V44.7177H37.4174V43Z" fill="#93A1C1"/>
<path d="M37.4174 46.4176H30.582V48.1353H37.4174V46.4176Z" fill="#93A1C1"/>
<path d="M32.2997 49.8353H30.582V51.553H32.2997V49.8353Z" fill="#93A1C1"/>
<path d="M34.8671 49.8353H33.1494V51.553H34.8671V49.8353Z" fill="#93A1C1"/>
<path d="M37.4355 49.8353H35.7178V51.553H37.4355V49.8353Z" fill="#93A1C1"/>
</svg>
