<svg width="85" height="86" viewBox="0 0 85 86" fill="none" xmlns="http://www.w3.org/2000/svg">
<path d="M21.3662 23.3105C21.7812 23.3105 22.0967 22.9785 22.0967 22.5801V20.2393H55.1836V47.3662C55.1836 47.7812 55.5156 48.0967 55.9141 48.0967C56.3291 48.0967 56.6445 47.7646 56.6445 47.3662V19.4922C56.6445 19.0771 56.3125 18.7617 55.9141 18.7617H21.3662C20.9512 18.7617 20.6357 19.0938 20.6357 19.4922V22.5801C20.6357 22.9785 20.9678 23.3105 21.3662 23.3105Z" fill="#93A1C1"/>
<path d="M53.4902 42.9336V31.6113C53.4902 30.1172 52.2617 28.8887 50.7676 28.8887H49.1572C48.7422 28.8887 48.4268 29.2207 48.4268 29.6191C48.4268 30.0176 48.7588 30.3496 49.1572 30.3496H50.7676C51.4482 30.3496 52.0127 30.9141 52.0127 31.5947V42.917C52.0127 43.5977 51.4482 44.1621 50.7676 44.1621H26.5293C25.8486 44.1621 25.2842 43.5977 25.2842 42.917V31.5947C25.2842 30.9141 25.8486 30.3496 26.5293 30.3496H45.7041C46.1191 30.3496 46.4346 30.0176 46.4346 29.6191C46.4346 29.2207 46.1025 28.8887 45.7041 28.8887H26.5293C25.0352 28.8887 23.8066 30.1172 23.8066 31.6113V42.9336C23.8066 44.4277 25.0352 45.6562 26.5293 45.6562H50.7676C52.2617 45.6562 53.4902 44.4443 53.4902 42.9336Z" fill="#93A1C1"/>
<path d="M43.4629 41.0078C43.4629 41.0576 43.4629 41.1074 43.4795 41.1572C43.4795 41.3398 43.5625 41.5225 43.6953 41.6553C43.8281 41.7881 44.0273 41.8711 44.21 41.8711C44.2764 41.8711 45.8369 41.8711 46.4512 41.8545C48.6426 41.8213 50.2197 39.8955 50.2197 37.2725C50.2197 34.5332 48.6758 32.6738 46.3682 32.6738H44.1768C43.9775 32.6738 43.7949 32.7568 43.6621 32.8896C43.5293 33.0225 43.4463 33.2217 43.4463 33.4043V41.0078H43.4629ZM46.3848 34.1514C48.1445 34.1514 48.7588 35.7617 48.7588 37.2725C48.7588 38.75 48.0283 40.3437 46.4346 40.377C46.1025 40.377 45.4551 40.3936 44.957 40.3936C44.957 39.4805 44.9404 35.0977 44.9404 34.168H46.3848V34.1514Z" fill="#93A1C1"/>
<path d="M35.3613 41.0078C35.3613 41.0576 35.3613 41.1074 35.3779 41.1572C35.3779 41.3398 35.4609 41.5225 35.5938 41.6553C35.7266 41.7881 35.9258 41.8711 36.1084 41.8711C36.1748 41.8711 37.7354 41.8711 38.3496 41.8545C40.541 41.8213 42.1182 39.8955 42.1182 37.2725C42.1182 34.5332 40.5742 32.6738 38.2666 32.6738H36.0752C35.876 32.6738 35.6934 32.7568 35.5605 32.8896C35.4277 33.0225 35.3447 33.2217 35.3447 33.4043V41.0078H35.3613ZM38.2832 34.1514C40.043 34.1514 40.6572 35.7617 40.6572 37.2725C40.6572 38.75 39.9268 40.3437 38.333 40.377C38.001 40.377 37.3535 40.3936 36.8555 40.3936C36.8555 39.4805 36.8389 35.0977 36.8389 34.168H38.2832V34.1514Z" fill="#93A1C1"/>
<path d="M33.3027 41.9873C33.7178 41.9873 34.0332 41.6553 34.0332 41.2568V33.3047C34.0332 32.8896 33.7012 32.5742 33.3027 32.5742C32.9043 32.5742 32.5723 32.9063 32.5723 33.3047V36.4092H28.5547V33.3047C28.5547 32.8896 28.2227 32.5742 27.8242 32.5742C27.4092 32.5742 27.0938 32.9063 27.0938 33.3047V41.2568C27.0938 41.6719 27.4258 41.9873 27.8242 41.9873C28.2393 41.9873 28.5547 41.6553 28.5547 41.2568V37.8867H32.5723V41.2568C32.5723 41.6553 32.9043 41.9873 33.3027 41.9873Z" fill="#93A1C1"/>
<path d="M51.166 21.9326C49.8877 21.9326 48.8418 22.9785 48.8418 24.2568C48.8418 25.5352 49.8877 26.5811 51.166 26.5811C52.4443 26.5811 53.4902 25.5352 53.4902 24.2568C53.4902 22.9785 52.4443 21.9326 51.166 21.9326ZM51.166 25.1201C50.7012 25.1201 50.3193 24.7383 50.3193 24.2734C50.3193 23.8086 50.7012 23.4268 51.166 23.4268C51.6309 23.4268 52.0127 23.8086 52.0127 24.2734C52.0127 24.7383 51.6309 25.1201 51.166 25.1201Z" fill="#93A1C1"/>
<path d="M26.1309 26.5977C27.4092 26.5977 28.4551 25.5518 28.4551 24.2734C28.4551 22.9951 27.4092 21.9492 26.1309 21.9492C24.8525 21.9492 23.8066 22.9951 23.8066 24.2734C23.8066 25.5518 24.8525 26.5977 26.1309 26.5977ZM26.1309 23.4102C26.5957 23.4102 26.9775 23.792 26.9775 24.2568C26.9775 24.7217 26.5957 25.1035 26.1309 25.1035C25.666 25.1035 25.2842 24.7217 25.2842 24.2568C25.2842 23.792 25.666 23.4102 26.1309 23.4102Z" fill="#93A1C1"/>
<path d="M51.166 52.6123C52.4443 52.6123 53.4902 51.5664 53.4902 50.2881C53.4902 49.0098 52.4443 47.9639 51.166 47.9639C49.8877 47.9639 48.8418 49.0098 48.8418 50.2881C48.8418 51.5664 49.8877 52.6123 51.166 52.6123ZM51.166 49.4414C51.6309 49.4414 52.0127 49.8232 52.0127 50.2881C52.0127 50.7529 51.6309 51.1348 51.166 51.1348C50.7012 51.1348 50.3193 50.7529 50.3193 50.2881C50.3193 49.8232 50.7012 49.4414 51.166 49.4414Z" fill="#93A1C1"/>
<path d="M23.8066 50.2881C23.8066 51.5664 24.8525 52.6123 26.1309 52.6123C27.4092 52.6123 28.4551 51.5664 28.4551 50.2881C28.4551 49.0098 27.4092 47.9639 26.1309 47.9639C24.8525 47.9639 23.8066 49.0098 23.8066 50.2881ZM26.9941 50.2881C26.9941 50.7529 26.6123 51.1348 26.1475 51.1348C25.6826 51.1348 25.3008 50.7529 25.3008 50.2881C25.3008 49.8232 25.6826 49.4414 26.1475 49.4414C26.6123 49.4414 26.9941 49.8232 26.9941 50.2881Z" fill="#93A1C1"/>
<path d="M66.0576 29.0879H65.4102V26.6475C65.4102 26.2324 65.0781 25.917 64.6797 25.917H61.5088C61.0938 25.917 60.7783 26.249 60.7783 26.6475V29.0879H60.0977C59.6826 29.0879 59.3672 29.4199 59.3672 29.8184V35.7783C59.3672 36.1934 59.6992 36.5088 60.0977 36.5088H62.3389V67.6035H50.751V65.6943H52.7432C53.1582 65.6943 53.4736 65.3623 53.4736 64.9639V62.9219H55.9141C56.3291 62.9219 56.6445 62.5898 56.6445 62.1914V50.8027C56.6445 50.3877 56.3125 50.0723 55.9141 50.0723C55.5156 50.0723 55.1836 50.4043 55.1836 50.8027V54.3057H22.1133V26.0332C22.1133 25.6182 21.7813 25.3027 21.3828 25.3027C20.9678 25.3027 20.6523 25.6348 20.6523 26.0332V62.208C20.6523 62.6231 20.9844 62.9385 21.3828 62.9385H46.5674V64.9805C46.5674 65.3955 46.8994 65.7109 47.2979 65.7109H49.29V68.3506C49.29 68.7656 49.6221 69.0811 50.0205 69.0811H63.0859C63.501 69.0811 63.8164 68.749 63.8164 68.3506V36.5254H66.0576C66.4727 36.5254 66.7881 36.1934 66.7881 35.7949V29.835C66.8047 29.4199 66.4727 29.0879 66.0576 29.0879ZM37.918 59.7676V61.4775H33.9336V59.7676H37.918ZM32.4561 61.4609H28.4717V59.7676H32.4561V61.4609ZM39.3955 61.4609V59.0205C39.3955 58.6055 39.0635 58.29 38.665 58.29H27.7246C27.3096 58.29 26.9941 58.6221 26.9941 59.0205V61.4609H22.1133V55.7832H55.2002V61.4609H53.4902V59.0205C53.4902 58.6055 53.1582 58.29 52.7598 58.29H47.2979C46.8828 58.29 46.5674 58.6221 46.5674 59.0205V61.4609H39.3955ZM48.0283 59.7676H52.0127V64.25H48.0283V59.7676ZM62.2393 27.3779H63.9492V29.0879H62.2393V27.3779ZM65.3271 35.0479H60.8447V30.5654H65.3271V35.0479Z" fill="#93A1C1"/>
</svg>
