<svg width="85" height="86" viewBox="0 0 85 86" fill="none" xmlns="http://www.w3.org/2000/svg">
<path d="M60.2637 22.4141H24.7363C22.7773 22.4141 21.1836 24.0078 21.1836 25.9668V52.9609C21.1836 54.9199 22.7773 56.5137 24.7363 56.5137H36.5068L34.9131 60.7803H33.2695C32.0908 60.7803 31.1445 61.7266 31.1445 62.9053V64.333C31.1445 64.7314 31.46 65.0469 31.8584 65.0469H53.1748C53.5732 65.0469 53.8887 64.7314 53.8887 64.333V62.9053C53.8887 61.7266 52.9424 60.7803 51.7637 60.7803H50.1201L48.5264 56.5137H60.2637C62.2227 56.5137 63.8164 54.9199 63.8164 52.9609V25.9668C63.8164 24.0078 62.2227 22.4141 60.2637 22.4141ZM24.7363 23.8418H60.2637C61.4424 23.8418 62.3887 24.7881 62.3887 25.9668V47.9805H22.6113V25.9668C22.6113 24.7881 23.5576 23.8418 24.7363 23.8418ZM52.4443 62.9053V63.6191H32.5557V62.9053C32.5557 62.5068 32.8711 62.1914 33.2695 62.1914H51.7471C52.1289 62.1914 52.4443 62.5068 52.4443 62.9053ZM48.5762 60.7803H36.4238L38.0176 56.5137H46.9824L48.5762 60.7803ZM60.2637 55.0859H24.7363C23.5576 55.0859 22.6113 54.1396 22.6113 52.9609V49.4082H62.3887V52.9609C62.3887 54.1396 61.4424 55.0859 60.2637 55.0859Z" fill="#93A1C1"/>
<path d="M42.5 50.1221C41.3213 50.1221 40.375 51.0684 40.375 52.2471C40.375 53.4258 41.3213 54.3721 42.5 54.3721C43.6787 54.3721 44.625 53.4258 44.625 52.2471C44.625 51.0684 43.6787 50.1221 42.5 50.1221ZM42.5 52.9609C42.1016 52.9609 41.7861 52.6455 41.7861 52.2471C41.7861 51.8486 42.1016 51.5332 42.5 51.5332C42.8984 51.5332 43.2139 51.8486 43.2139 52.2471C43.2139 52.6455 42.8984 52.9609 42.5 52.9609Z" fill="#93A1C1"/>
</svg>
