<svg width="85" height="86" viewBox="0 0 85 86" fill="none" xmlns="http://www.w3.org/2000/svg">
<g clip-path="url(#clip0_17_14820)">
<path d="M39.6445 43.5147C39.3125 43.5147 39.0303 43.6143 38.9971 43.8965C38.9639 44.2783 38.8809 44.876 37.9844 44.876C37.2871 44.876 36.9219 44.5439 36.9219 43.8135V41.2568C36.9219 40.543 37.3037 40.1943 37.9678 40.1943C38.9141 40.1943 38.9805 40.8252 39.0137 41.1074C39.0303 41.3897 39.2959 41.4893 39.6611 41.4893C40.0928 41.4893 40.3086 41.373 40.3086 40.9082C40.3086 39.8457 39.3125 39.165 37.9346 39.165C36.6729 39.165 35.627 39.7295 35.627 41.2568V43.8135C35.627 45.3408 36.6728 45.9053 37.918 45.9053C39.3125 45.9053 40.3086 45.1914 40.3086 44.0957C40.3086 43.6309 40.1094 43.5147 39.6445 43.5147Z" fill="#93A1C1"/>
<path d="M43.6953 39.165H41.6865C41.3877 39.165 41.2051 39.3311 41.2051 39.5303V45.4902C41.2051 45.7393 41.5205 45.8721 41.8525 45.8721C42.168 45.8721 42.5 45.7393 42.5 45.4902V43.3652H43.6123C44.9238 43.3652 45.9531 42.7842 45.9531 41.29V41.2402C45.9531 39.7295 44.957 39.165 43.6953 39.165ZM44.6582 41.373C44.6582 42.0869 44.2598 42.4355 43.6123 42.4355H42.5V40.2109H43.6123C44.2598 40.2109 44.6582 40.543 44.6582 41.2734V41.373Z" fill="#93A1C1"/>
<path d="M50.8838 39.165C50.5518 39.165 50.2363 39.2813 50.2363 39.5303V43.8135C50.2363 44.5273 49.8213 44.876 49.1406 44.876C48.4434 44.876 48.0449 44.5439 48.0449 43.8135V39.5303C48.0449 39.2813 47.7129 39.165 47.3975 39.165C47.0654 39.165 46.75 39.2813 46.75 39.5303V43.8135C46.75 45.3408 47.7959 45.9053 49.1406 45.9053C50.4854 45.9053 51.5312 45.3408 51.5312 43.8135V39.5303C51.5312 39.2813 51.1992 39.165 50.8838 39.165Z" fill="#93A1C1"/>
<path d="M26.4795 26.1162C26.8829 26.1162 27.21 25.7892 27.21 25.3857C27.21 24.9823 26.8829 24.6553 26.4795 24.6553C26.0761 24.6553 25.749 24.9823 25.749 25.3857C25.749 25.7892 26.0761 26.1162 26.4795 26.1162Z" fill="#93A1C1"/>
<path d="M29.6172 26.1162C30.0206 26.1162 30.3477 25.7892 30.3477 25.3857C30.3477 24.9823 30.0206 24.6553 29.6172 24.6553C29.2138 24.6553 28.8867 24.9823 28.8867 25.3857C28.8867 25.7892 29.2138 26.1162 29.6172 26.1162Z" fill="#93A1C1"/>
<path d="M32.7549 26.1162C33.1583 26.1162 33.4854 25.7892 33.4854 25.3857C33.4854 24.9823 33.1583 24.6553 32.7549 24.6553C32.3515 24.6553 32.0244 24.9823 32.0244 25.3857C32.0244 25.7892 32.3515 26.1162 32.7549 26.1162Z" fill="#93A1C1"/>
<path d="M35.876 26.1162C36.2794 26.1162 36.6064 25.7892 36.6064 25.3857C36.6064 24.9823 36.2794 24.6553 35.876 24.6553C35.4726 24.6553 35.1455 24.9823 35.1455 25.3857C35.1455 25.7892 35.4726 26.1162 35.876 26.1162Z" fill="#93A1C1"/>
<path d="M39.0137 26.1162C39.4171 26.1162 39.7441 25.7892 39.7441 25.3857C39.7441 24.9823 39.4171 24.6553 39.0137 24.6553C38.6102 24.6553 38.2832 24.9823 38.2832 25.3857C38.2832 25.7892 38.6102 26.1162 39.0137 26.1162Z" fill="#93A1C1"/>
<path d="M42.1514 26.1162C42.5548 26.1162 42.8818 25.7892 42.8818 25.3857C42.8818 24.9823 42.5548 24.6553 42.1514 24.6553C41.7479 24.6553 41.4209 24.9823 41.4209 25.3857C41.4209 25.7892 41.7479 26.1162 42.1514 26.1162Z" fill="#93A1C1"/>
<path d="M45.2725 26.1162C45.6759 26.1162 46.0029 25.7892 46.0029 25.3857C46.0029 24.9823 45.6759 24.6553 45.2725 24.6553C44.869 24.6553 44.542 24.9823 44.542 25.3857C44.542 25.7892 44.869 26.1162 45.2725 26.1162Z" fill="#93A1C1"/>
<path d="M48.4102 26.1162C48.8136 26.1162 49.1406 25.7892 49.1406 25.3857C49.1406 24.9823 48.8136 24.6553 48.4102 24.6553C48.0067 24.6553 47.6797 24.9823 47.6797 25.3857C47.6797 25.7892 48.0067 26.1162 48.4102 26.1162Z" fill="#93A1C1"/>
<path d="M51.5479 26.1162C51.9513 26.1162 52.2783 25.7892 52.2783 25.3857C52.2783 24.9823 51.9513 24.6553 51.5479 24.6553C51.1444 24.6553 50.8174 24.9823 50.8174 25.3857C50.8174 25.7892 51.1444 26.1162 51.5479 26.1162Z" fill="#93A1C1"/>
<path d="M54.6689 26.1162C55.0724 26.1162 55.3994 25.7892 55.3994 25.3857C55.3994 24.9823 55.0724 24.6553 54.6689 24.6553C54.2655 24.6553 53.9385 24.9823 53.9385 25.3857C53.9385 25.7892 54.2655 26.1162 54.6689 26.1162Z" fill="#93A1C1"/>
<path d="M57.8066 26.1162C58.2101 26.1162 58.5371 25.7892 58.5371 25.3857C58.5371 24.9823 58.2101 24.6553 57.8066 24.6553C57.4032 24.6553 57.0762 24.9823 57.0762 25.3857C57.0762 25.7892 57.4032 26.1162 57.8066 26.1162Z" fill="#93A1C1"/>
<path d="M60.9443 26.1162C61.3478 26.1162 61.6748 25.7892 61.6748 25.3857C61.6748 24.9823 61.3478 24.6553 60.9443 24.6553C60.5409 24.6553 60.2139 24.9823 60.2139 25.3857C60.2139 25.7892 60.5409 26.1162 60.9443 26.1162Z" fill="#93A1C1"/>
<path d="M26.4795 29.2871C26.8829 29.2871 27.21 28.9601 27.21 28.5566C27.21 28.1532 26.8829 27.8262 26.4795 27.8262C26.0761 27.8262 25.749 28.1532 25.749 28.5566C25.749 28.9601 26.0761 29.2871 26.4795 29.2871Z" fill="#93A1C1"/>
<path d="M29.6172 29.2871C30.0206 29.2871 30.3477 28.9601 30.3477 28.5566C30.3477 28.1532 30.0206 27.8262 29.6172 27.8262C29.2138 27.8262 28.8867 28.1532 28.8867 28.5566C28.8867 28.9601 29.2138 29.2871 29.6172 29.2871Z" fill="#93A1C1"/>
<path d="M32.7549 29.2871C33.1583 29.2871 33.4854 28.9601 33.4854 28.5566C33.4854 28.1532 33.1583 27.8262 32.7549 27.8262C32.3515 27.8262 32.0244 28.1532 32.0244 28.5566C32.0244 28.9601 32.3515 29.2871 32.7549 29.2871Z" fill="#93A1C1"/>
<path d="M35.876 29.2871C36.2794 29.2871 36.6064 28.9601 36.6064 28.5566C36.6064 28.1532 36.2794 27.8262 35.876 27.8262C35.4726 27.8262 35.1455 28.1532 35.1455 28.5566C35.1455 28.9601 35.4726 29.2871 35.876 29.2871Z" fill="#93A1C1"/>
<path d="M39.0137 29.2871C39.4171 29.2871 39.7441 28.9601 39.7441 28.5566C39.7441 28.1532 39.4171 27.8262 39.0137 27.8262C38.6102 27.8262 38.2832 28.1532 38.2832 28.5566C38.2832 28.9601 38.6102 29.2871 39.0137 29.2871Z" fill="#93A1C1"/>
<path d="M42.1514 29.2871C42.5548 29.2871 42.8818 28.9601 42.8818 28.5566C42.8818 28.1532 42.5548 27.8262 42.1514 27.8262C41.7479 27.8262 41.4209 28.1532 41.4209 28.5566C41.4209 28.9601 41.7479 29.2871 42.1514 29.2871Z" fill="#93A1C1"/>
<path d="M45.2725 29.2871C45.6759 29.2871 46.0029 28.9601 46.0029 28.5566C46.0029 28.1532 45.6759 27.8262 45.2725 27.8262C44.869 27.8262 44.542 28.1532 44.542 28.5566C44.542 28.9601 44.869 29.2871 45.2725 29.2871Z" fill="#93A1C1"/>
<path d="M48.4102 29.2871C48.8136 29.2871 49.1406 28.9601 49.1406 28.5566C49.1406 28.1532 48.8136 27.8262 48.4102 27.8262C48.0067 27.8262 47.6797 28.1532 47.6797 28.5566C47.6797 28.9601 48.0067 29.2871 48.4102 29.2871Z" fill="#93A1C1"/>
<path d="M51.5479 29.2871C51.9513 29.2871 52.2783 28.9601 52.2783 28.5566C52.2783 28.1532 51.9513 27.8262 51.5479 27.8262C51.1444 27.8262 50.8174 28.1532 50.8174 28.5566C50.8174 28.9601 51.1444 29.2871 51.5479 29.2871Z" fill="#93A1C1"/>
<path d="M54.6689 29.2871C55.0724 29.2871 55.3994 28.9601 55.3994 28.5566C55.3994 28.1532 55.0724 27.8262 54.6689 27.8262C54.2655 27.8262 53.9385 28.1532 53.9385 28.5566C53.9385 28.9601 54.2655 29.2871 54.6689 29.2871Z" fill="#93A1C1"/>
<path d="M57.8066 29.2871C58.2101 29.2871 58.5371 28.9601 58.5371 28.5566C58.5371 28.1532 58.2101 27.8262 57.8066 27.8262C57.4032 27.8262 57.0762 28.1532 57.0762 28.5566C57.0762 28.9601 57.4032 29.2871 57.8066 29.2871Z" fill="#93A1C1"/>
<path d="M60.9443 29.2871C61.3478 29.2871 61.6748 28.9601 61.6748 28.5566C61.6748 28.1532 61.3478 27.8262 60.9443 27.8262C60.5409 27.8262 60.2139 28.1532 60.2139 28.5566C60.2139 28.9601 60.5409 29.2871 60.9443 29.2871Z" fill="#93A1C1"/>
<path d="M26.4795 32.4912C26.8829 32.4912 27.21 32.1642 27.21 31.7607C27.21 31.3573 26.8829 31.0303 26.4795 31.0303C26.0761 31.0303 25.749 31.3573 25.749 31.7607C25.749 32.1642 26.0761 32.4912 26.4795 32.4912Z" fill="#93A1C1"/>
<path d="M29.6172 32.4912C30.0206 32.4912 30.3477 32.1642 30.3477 31.7607C30.3477 31.3573 30.0206 31.0303 29.6172 31.0303C29.2138 31.0303 28.8867 31.3573 28.8867 31.7607C28.8867 32.1642 29.2138 32.4912 29.6172 32.4912Z" fill="#93A1C1"/>
<path d="M57.8066 32.4912C58.2101 32.4912 58.5371 32.1642 58.5371 31.7607C58.5371 31.3573 58.2101 31.0303 57.8066 31.0303C57.4032 31.0303 57.0762 31.3573 57.0762 31.7607C57.0762 32.1642 57.4032 32.4912 57.8066 32.4912Z" fill="#93A1C1"/>
<path d="M60.9443 32.4912C61.3478 32.4912 61.6748 32.1642 61.6748 31.7607C61.6748 31.3573 61.3478 31.0303 60.9443 31.0303C60.5409 31.0303 60.2139 31.3573 60.2139 31.7607C60.2139 32.1642 60.5409 32.4912 60.9443 32.4912Z" fill="#93A1C1"/>
<path d="M26.4795 35.6621C26.8829 35.6621 27.21 35.3351 27.21 34.9316C27.21 34.5282 26.8829 34.2012 26.4795 34.2012C26.0761 34.2012 25.749 34.5282 25.749 34.9316C25.749 35.3351 26.0761 35.6621 26.4795 35.6621Z" fill="#93A1C1"/>
<path d="M29.6172 35.6621C30.0206 35.6621 30.3477 35.3351 30.3477 34.9316C30.3477 34.5282 30.0206 34.2012 29.6172 34.2012C29.2138 34.2012 28.8867 34.5282 28.8867 34.9316C28.8867 35.3351 29.2138 35.6621 29.6172 35.6621Z" fill="#93A1C1"/>
<path d="M57.8066 35.6621C58.2101 35.6621 58.5371 35.3351 58.5371 34.9316C58.5371 34.5282 58.2101 34.2012 57.8066 34.2012C57.4032 34.2012 57.0762 34.5282 57.0762 34.9316C57.0762 35.3351 57.4032 35.6621 57.8066 35.6621Z" fill="#93A1C1"/>
<path d="M60.9443 35.6621C61.3478 35.6621 61.6748 35.3351 61.6748 34.9316C61.6748 34.5282 61.3478 34.2012 60.9443 34.2012C60.5409 34.2012 60.2139 34.5282 60.2139 34.9316C60.2139 35.3351 60.5409 35.6621 60.9443 35.6621Z" fill="#93A1C1"/>
<path d="M26.4795 38.8662C26.8829 38.8662 27.21 38.5392 27.21 38.1357C27.21 37.7323 26.8829 37.4053 26.4795 37.4053C26.0761 37.4053 25.749 37.7323 25.749 38.1357C25.749 38.5392 26.0761 38.8662 26.4795 38.8662Z" fill="#93A1C1"/>
<path d="M29.6172 38.8662C30.0206 38.8662 30.3477 38.5392 30.3477 38.1357C30.3477 37.7323 30.0206 37.4053 29.6172 37.4053C29.2138 37.4053 28.8867 37.7323 28.8867 38.1357C28.8867 38.5392 29.2138 38.8662 29.6172 38.8662Z" fill="#93A1C1"/>
<path d="M57.8066 38.8662C58.2101 38.8662 58.5371 38.5392 58.5371 38.1357C58.5371 37.7323 58.2101 37.4053 57.8066 37.4053C57.4032 37.4053 57.0762 37.7323 57.0762 38.1357C57.0762 38.5392 57.4032 38.8662 57.8066 38.8662Z" fill="#93A1C1"/>
<path d="M60.9443 38.8662C61.3478 38.8662 61.6748 38.5392 61.6748 38.1357C61.6748 37.7323 61.3478 37.4053 60.9443 37.4053C60.5409 37.4053 60.2139 37.7323 60.2139 38.1357C60.2139 38.5392 60.5409 38.8662 60.9443 38.8662Z" fill="#93A1C1"/>
<path d="M26.4795 42.0371C26.8829 42.0371 27.21 41.7101 27.21 41.3066C27.21 40.9032 26.8829 40.5762 26.4795 40.5762C26.0761 40.5762 25.749 40.9032 25.749 41.3066C25.749 41.7101 26.0761 42.0371 26.4795 42.0371Z" fill="#93A1C1"/>
<path d="M29.6172 42.0371C30.0206 42.0371 30.3477 41.7101 30.3477 41.3066C30.3477 40.9032 30.0206 40.5762 29.6172 40.5762C29.2138 40.5762 28.8867 40.9032 28.8867 41.3066C28.8867 41.7101 29.2138 42.0371 29.6172 42.0371Z" fill="#93A1C1"/>
<path d="M57.8066 42.0371C58.2101 42.0371 58.5371 41.7101 58.5371 41.3066C58.5371 40.9032 58.2101 40.5762 57.8066 40.5762C57.4032 40.5762 57.0762 40.9032 57.0762 41.3066C57.0762 41.7101 57.4032 42.0371 57.8066 42.0371Z" fill="#93A1C1"/>
<path d="M60.9443 42.0371C61.3478 42.0371 61.6748 41.7101 61.6748 41.3066C61.6748 40.9032 61.3478 40.5762 60.9443 40.5762C60.5409 40.5762 60.2139 40.9032 60.2139 41.3066C60.2139 41.7101 60.5409 42.0371 60.9443 42.0371Z" fill="#93A1C1"/>
<path d="M27.2178 44.5388C27.2312 44.1356 26.9152 43.7979 26.512 43.7845C26.1089 43.771 25.7711 44.087 25.7577 44.4902C25.7443 44.8934 26.0602 45.2311 26.4634 45.2445C26.8666 45.2579 27.2043 44.942 27.2178 44.5388Z" fill="#93A1C1"/>
<path d="M29.6172 45.2412C30.0206 45.2412 30.3477 44.9142 30.3477 44.5107C30.3477 44.1073 30.0206 43.7803 29.6172 43.7803C29.2138 43.7803 28.8867 44.1073 28.8867 44.5107C28.8867 44.9142 29.2138 45.2412 29.6172 45.2412Z" fill="#93A1C1"/>
<path d="M57.8066 45.2412C58.2101 45.2412 58.5371 44.9142 58.5371 44.5107C58.5371 44.1073 58.2101 43.7803 57.8066 43.7803C57.4032 43.7803 57.0762 44.1073 57.0762 44.5107C57.0762 44.9142 57.4032 45.2412 57.8066 45.2412Z" fill="#93A1C1"/>
<path d="M60.9443 45.2412C61.3478 45.2412 61.6748 44.9142 61.6748 44.5107C61.6748 44.1073 61.3478 43.7803 60.9443 43.7803C60.5409 43.7803 60.2139 44.1073 60.2139 44.5107C60.2139 44.9142 60.5409 45.2412 60.9443 45.2412Z" fill="#93A1C1"/>
<path d="M27.2168 47.7109C27.2302 47.3077 26.9143 46.97 26.5111 46.9566C26.1079 46.9432 25.7702 47.2591 25.7567 47.6623C25.7433 48.0655 26.0593 48.4032 26.4625 48.4166C26.8656 48.4301 27.2034 48.1141 27.2168 47.7109Z" fill="#93A1C1"/>
<path d="M29.6172 48.4121C30.0206 48.4121 30.3477 48.0851 30.3477 47.6816C30.3477 47.2782 30.0206 46.9512 29.6172 46.9512C29.2138 46.9512 28.8867 47.2782 28.8867 47.6816C28.8867 48.0851 29.2138 48.4121 29.6172 48.4121Z" fill="#93A1C1"/>
<path d="M57.8066 48.4121C58.2101 48.4121 58.5371 48.0851 58.5371 47.6816C58.5371 47.2782 58.2101 46.9512 57.8066 46.9512C57.4032 46.9512 57.0762 47.2782 57.0762 47.6816C57.0762 48.0851 57.4032 48.4121 57.8066 48.4121Z" fill="#93A1C1"/>
<path d="M60.9443 48.4121C61.3478 48.4121 61.6748 48.0851 61.6748 47.6816C61.6748 47.2782 61.3478 46.9512 60.9443 46.9512C60.5409 46.9512 60.2139 47.2782 60.2139 47.6816C60.2139 48.0851 60.5409 48.4121 60.9443 48.4121Z" fill="#93A1C1"/>
<path d="M27.2197 50.9116C27.2331 50.5084 26.9172 50.1707 26.514 50.1573C26.1108 50.1438 25.7731 50.4598 25.7597 50.863C25.7462 51.2662 26.0622 51.6039 26.4654 51.6173C26.8686 51.6308 27.2063 51.3148 27.2197 50.9116Z" fill="#93A1C1"/>
<path d="M29.6172 51.6162C30.0206 51.6162 30.3477 51.2892 30.3477 50.8857C30.3477 50.4823 30.0206 50.1553 29.6172 50.1553C29.2138 50.1553 28.8867 50.4823 28.8867 50.8857C28.8867 51.2892 29.2138 51.6162 29.6172 51.6162Z" fill="#93A1C1"/>
<path d="M57.8066 51.6162C58.2101 51.6162 58.5371 51.2892 58.5371 50.8857C58.5371 50.4823 58.2101 50.1553 57.8066 50.1553C57.4032 50.1553 57.0762 50.4823 57.0762 50.8857C57.0762 51.2892 57.4032 51.6162 57.8066 51.6162Z" fill="#93A1C1"/>
<path d="M60.9443 51.6162C61.3478 51.6162 61.6748 51.2892 61.6748 50.8857C61.6748 50.4823 61.3478 50.1553 60.9443 50.1553C60.5409 50.1553 60.2139 50.4823 60.2139 50.8857C60.2139 51.2892 60.5409 51.6162 60.9443 51.6162Z" fill="#93A1C1"/>
<path d="M27.2197 54.083C27.2331 53.6798 26.9172 53.3421 26.514 53.3287C26.1108 53.3152 25.7731 53.6312 25.7597 54.0344C25.7462 54.4376 26.0622 54.7753 26.4654 54.7887C26.8686 54.8021 27.2063 54.4862 27.2197 54.083Z" fill="#93A1C1"/>
<path d="M29.6172 54.7871C30.0206 54.7871 30.3477 54.4601 30.3477 54.0566C30.3477 53.6532 30.0206 53.3262 29.6172 53.3262C29.2138 53.3262 28.8867 53.6532 28.8867 54.0566C28.8867 54.4601 29.2138 54.7871 29.6172 54.7871Z" fill="#93A1C1"/>
<path d="M57.8066 54.7871C58.2101 54.7871 58.5371 54.4601 58.5371 54.0566C58.5371 53.6532 58.2101 53.3262 57.8066 53.3262C57.4032 53.3262 57.0762 53.6532 57.0762 54.0566C57.0762 54.4601 57.4032 54.7871 57.8066 54.7871Z" fill="#93A1C1"/>
<path d="M60.9443 54.7871C61.3478 54.7871 61.6748 54.4601 61.6748 54.0566C61.6748 53.6532 61.3478 53.3262 60.9443 53.3262C60.5409 53.3262 60.2139 53.6532 60.2139 54.0566C60.2139 54.4601 60.5409 54.7871 60.9443 54.7871Z" fill="#93A1C1"/>
<path d="M27.2051 57.2842C27.2185 56.881 26.9025 56.5433 26.4993 56.5298C26.0962 56.5164 25.7584 56.8324 25.745 57.2355C25.7316 57.6387 26.0475 57.9765 26.4507 57.9899C26.8539 58.0033 27.1917 57.6873 27.2051 57.2842Z" fill="#93A1C1"/>
<path d="M29.6172 57.9746C30.0206 57.9746 30.3477 57.6476 30.3477 57.2441C30.3477 56.8407 30.0206 56.5137 29.6172 56.5137C29.2138 56.5137 28.8867 56.8407 28.8867 57.2441C28.8867 57.6476 29.2138 57.9746 29.6172 57.9746Z" fill="#93A1C1"/>
<path d="M32.7549 57.9746C33.1583 57.9746 33.4854 57.6476 33.4854 57.2441C33.4854 56.8407 33.1583 56.5137 32.7549 56.5137C32.3515 56.5137 32.0244 56.8407 32.0244 57.2441C32.0244 57.6476 32.3515 57.9746 32.7549 57.9746Z" fill="#93A1C1"/>
<path d="M35.876 57.9746C36.2794 57.9746 36.6064 57.6476 36.6064 57.2441C36.6064 56.8407 36.2794 56.5137 35.876 56.5137C35.4726 56.5137 35.1455 56.8407 35.1455 57.2441C35.1455 57.6476 35.4726 57.9746 35.876 57.9746Z" fill="#93A1C1"/>
<path d="M39.0137 57.9746C39.4171 57.9746 39.7441 57.6476 39.7441 57.2441C39.7441 56.8407 39.4171 56.5137 39.0137 56.5137C38.6102 56.5137 38.2832 56.8407 38.2832 57.2441C38.2832 57.6476 38.6102 57.9746 39.0137 57.9746Z" fill="#93A1C1"/>
<path d="M42.1514 57.9746C42.5548 57.9746 42.8818 57.6476 42.8818 57.2441C42.8818 56.8407 42.5548 56.5137 42.1514 56.5137C41.7479 56.5137 41.4209 56.8407 41.4209 57.2441C41.4209 57.6476 41.7479 57.9746 42.1514 57.9746Z" fill="#93A1C1"/>
<path d="M45.2725 57.9746C45.6759 57.9746 46.0029 57.6476 46.0029 57.2441C46.0029 56.8407 45.6759 56.5137 45.2725 56.5137C44.869 56.5137 44.542 56.8407 44.542 57.2441C44.542 57.6476 44.869 57.9746 45.2725 57.9746Z" fill="#93A1C1"/>
<path d="M48.4102 57.9746C48.8136 57.9746 49.1406 57.6476 49.1406 57.2441C49.1406 56.8407 48.8136 56.5137 48.4102 56.5137C48.0067 56.5137 47.6797 56.8407 47.6797 57.2441C47.6797 57.6476 48.0067 57.9746 48.4102 57.9746Z" fill="#93A1C1"/>
<path d="M51.5479 57.9746C51.9513 57.9746 52.2783 57.6476 52.2783 57.2441C52.2783 56.8407 51.9513 56.5137 51.5479 56.5137C51.1444 56.5137 50.8174 56.8407 50.8174 57.2441C50.8174 57.6476 51.1444 57.9746 51.5479 57.9746Z" fill="#93A1C1"/>
<path d="M54.6689 57.9746C55.0724 57.9746 55.3994 57.6476 55.3994 57.2441C55.3994 56.8407 55.0724 56.5137 54.6689 56.5137C54.2655 56.5137 53.9385 56.8407 53.9385 57.2441C53.9385 57.6476 54.2655 57.9746 54.6689 57.9746Z" fill="#93A1C1"/>
<path d="M57.8066 57.9746C58.2101 57.9746 58.5371 57.6476 58.5371 57.2441C58.5371 56.8407 58.2101 56.5137 57.8066 56.5137C57.4032 56.5137 57.0762 56.8407 57.0762 57.2441C57.0762 57.6476 57.4032 57.9746 57.8066 57.9746Z" fill="#93A1C1"/>
<path d="M60.9443 57.9746C61.3478 57.9746 61.6748 57.6476 61.6748 57.2441C61.6748 56.8407 61.3478 56.5137 60.9443 56.5137C60.5409 56.5137 60.2139 56.8407 60.2139 57.2441C60.2139 57.6476 60.5409 57.9746 60.9443 57.9746Z" fill="#93A1C1"/>
<path d="M27.2217 60.456C27.2351 60.0529 26.9191 59.7151 26.516 59.7017C26.1128 59.6883 25.775 60.0042 25.7616 60.4074C25.7482 60.8106 26.0641 61.1483 26.4673 61.1618C26.8705 61.1752 27.2082 60.8592 27.2217 60.456Z" fill="#93A1C1"/>
<path d="M29.6172 61.1621C30.0206 61.1621 30.3477 60.8351 30.3477 60.4316C30.3477 60.0282 30.0206 59.7012 29.6172 59.7012C29.2138 59.7012 28.8867 60.0282 28.8867 60.4316C28.8867 60.8351 29.2138 61.1621 29.6172 61.1621Z" fill="#93A1C1"/>
<path d="M32.7549 61.1621C33.1583 61.1621 33.4854 60.8351 33.4854 60.4316C33.4854 60.0282 33.1583 59.7012 32.7549 59.7012C32.3515 59.7012 32.0244 60.0282 32.0244 60.4316C32.0244 60.8351 32.3515 61.1621 32.7549 61.1621Z" fill="#93A1C1"/>
<path d="M35.876 61.1621C36.2794 61.1621 36.6064 60.8351 36.6064 60.4316C36.6064 60.0282 36.2794 59.7012 35.876 59.7012C35.4726 59.7012 35.1455 60.0282 35.1455 60.4316C35.1455 60.8351 35.4726 61.1621 35.876 61.1621Z" fill="#93A1C1"/>
<path d="M39.0137 61.1621C39.4171 61.1621 39.7441 60.8351 39.7441 60.4316C39.7441 60.0282 39.4171 59.7012 39.0137 59.7012C38.6102 59.7012 38.2832 60.0282 38.2832 60.4316C38.2832 60.8351 38.6102 61.1621 39.0137 61.1621Z" fill="#93A1C1"/>
<path d="M42.1514 61.1621C42.5548 61.1621 42.8818 60.8351 42.8818 60.4316C42.8818 60.0282 42.5548 59.7012 42.1514 59.7012C41.7479 59.7012 41.4209 60.0282 41.4209 60.4316C41.4209 60.8351 41.7479 61.1621 42.1514 61.1621Z" fill="#93A1C1"/>
<path d="M45.2725 61.1621C45.6759 61.1621 46.0029 60.8351 46.0029 60.4316C46.0029 60.0282 45.6759 59.7012 45.2725 59.7012C44.869 59.7012 44.542 60.0282 44.542 60.4316C44.542 60.8351 44.869 61.1621 45.2725 61.1621Z" fill="#93A1C1"/>
<path d="M48.4102 61.1621C48.8136 61.1621 49.1406 60.8351 49.1406 60.4316C49.1406 60.0282 48.8136 59.7012 48.4102 59.7012C48.0067 59.7012 47.6797 60.0282 47.6797 60.4316C47.6797 60.8351 48.0067 61.1621 48.4102 61.1621Z" fill="#93A1C1"/>
<path d="M51.5479 61.1621C51.9513 61.1621 52.2783 60.8351 52.2783 60.4316C52.2783 60.0282 51.9513 59.7012 51.5479 59.7012C51.1444 59.7012 50.8174 60.0282 50.8174 60.4316C50.8174 60.8351 51.1444 61.1621 51.5479 61.1621Z" fill="#93A1C1"/>
<path d="M54.6689 61.1621C55.0724 61.1621 55.3994 60.8351 55.3994 60.4316C55.3994 60.0282 55.0724 59.7012 54.6689 59.7012C54.2655 59.7012 53.9385 60.0282 53.9385 60.4316C53.9385 60.8351 54.2655 61.1621 54.6689 61.1621Z" fill="#93A1C1"/>
<path d="M57.8066 61.1621C58.2101 61.1621 58.5371 60.8351 58.5371 60.4316C58.5371 60.0282 58.2101 59.7012 57.8066 59.7012C57.4032 59.7012 57.0762 60.0282 57.0762 60.4316C57.0762 60.8351 57.4032 61.1621 57.8066 61.1621Z" fill="#93A1C1"/>
<path d="M60.9443 61.1621C61.3478 61.1621 61.6748 60.8351 61.6748 60.4316C61.6748 60.0282 61.3478 59.7012 60.9443 59.7012C60.5409 59.7012 60.2139 60.0282 60.2139 60.4316C60.2139 60.8351 60.5409 61.1621 60.9443 61.1621Z" fill="#93A1C1"/>
<path d="M54.4199 30.748H33.1201C32.2402 30.748 31.5264 31.4619 31.5264 32.3418V41.1572C31.5264 41.5391 31.8418 41.8379 32.207 41.8379C32.5723 41.8379 32.8877 41.5225 32.8877 41.1572V32.3418C32.8877 32.2256 32.9873 32.126 33.1035 32.126H54.4033C54.5195 32.126 54.6191 32.2256 54.6191 32.3418V41.1572C54.6191 41.5391 54.9346 41.8379 55.2998 41.8379C55.665 41.8379 55.9805 41.5225 55.9805 41.1572V32.3418C56.0137 31.4619 55.2998 30.748 54.4199 30.748Z" fill="#93A1C1"/>
<path d="M55.333 44.1289C54.9512 44.1289 54.6523 44.4443 54.6523 44.8096V48.9932C54.6523 49.1592 54.5859 49.3252 54.4697 49.4414L50.2031 53.6582C50.0869 53.7744 49.9209 53.8408 49.7715 53.8408H33.1201C33.0039 53.8408 32.9043 53.7412 32.9043 53.625V44.8096C32.9043 44.4277 32.5889 44.1289 32.2236 44.1289C31.8584 44.1289 31.543 44.4443 31.543 44.8096V53.625C31.543 54.5049 32.2568 55.2188 33.1367 55.2188H49.7715C50.3027 55.2188 50.8008 55.0195 51.1826 54.6377L55.4492 50.4209C55.8311 50.0557 56.0469 49.5244 56.0469 49.0098V44.8262C56.0137 44.4277 55.6982 44.1289 55.333 44.1289Z" fill="#93A1C1"/>
<path d="M59.9843 31.0204C60.4155 31.0204 60.7683 30.6676 60.7683 30.2365C60.7683 29.8053 60.4155 29.4525 59.9843 29.4525H57.7108V24.8859H59.9843C60.4155 24.8859 60.7683 24.5331 60.7683 24.1019C60.7683 23.6708 60.4155 23.318 59.9843 23.318H57.7108V21.7697C57.7108 20.0449 56.3193 18.6534 54.5946 18.6534H53.0462V16.3799C53.0462 15.9487 52.6934 15.5959 52.2623 15.5959C51.8311 15.5959 51.4783 15.9487 51.4783 16.3799V18.6534H46.9117V16.3799C46.9117 15.9487 46.5589 15.5959 46.1278 15.5959C45.6966 15.5959 45.3438 15.9487 45.3438 16.3799V18.6534H40.7772V16.3799C40.7772 15.9487 40.4244 15.5959 39.9932 15.5959C39.5621 15.5959 39.2093 15.9487 39.2093 16.3799V18.6534H34.6427V16.3799C34.6427 15.9487 34.2899 15.5959 33.8587 15.5959C33.4276 15.5959 33.0748 15.9487 33.0748 16.3799V18.6534H28.5082V16.3799C28.5082 15.9487 28.1554 15.5959 27.7242 15.5959C27.2931 15.5959 26.9403 15.9487 26.9403 16.3799V18.6534H22.3737V16.3799C22.3737 15.9487 22.0209 15.5959 21.5897 15.5959C21.1585 15.5959 20.8058 15.9487 20.8058 16.3799V18.6534H16.2392V16.3799C16.2392 15.9487 15.8864 15.5959 15.4552 15.5959C15.024 15.5959 14.6713 15.9487 14.6713 16.3799V18.6534H13.1229C11.3982 18.6534 10.0067 20.0449 10.0067 21.7697V23.318H7.73318C7.302 23.318 6.94922 23.6708 6.94922 24.1019C6.94922 24.5331 7.302 24.8859 7.73318 24.8859H10.0067V29.4525H7.73318C7.302 29.4525 6.94922 29.8053 6.94922 30.2365C6.94922 30.6676 7.302 31.0204 7.73318 31.0204H10.0067V35.587H7.73318C7.302 35.587 6.94922 35.9398 6.94922 36.371C6.94922 36.8021 7.302 37.1549 7.73318 37.1549H10.0067V41.7215H7.73318C7.302 41.7215 6.94922 42.0743 6.94922 42.5055C6.94922 42.9366 7.302 43.2894 7.73318 43.2894H10.0067V47.856H7.73318C7.302 47.856 6.94922 48.2088 6.94922 48.64C6.94922 49.0712 7.302 49.4239 7.73318 49.4239H10.0067V53.9905H7.73318C7.302 53.9905 6.94922 54.3433 6.94922 54.7745C6.94922 55.2057 7.302 55.5584 7.73318 55.5584H10.0067V60.125H7.73318C7.302 60.125 6.94922 60.4778 6.94922 60.909C6.94922 61.3402 7.302 61.693 7.73318 61.693H10.0067V63.2413C10.0067 64.966 11.3982 66.3575 13.1229 66.3575H14.6713V68.631C14.6713 69.0622 15.024 69.415 15.4552 69.415C15.8864 69.415 16.2392 69.0622 16.2392 68.631V66.3575H20.8058V68.631C20.8058 69.0622 21.1585 69.415 21.5897 69.415C22.0209 69.415 22.3737 69.0622 22.3737 68.631V66.3575H26.9403V68.631C26.9403 69.0622 27.2931 69.415 27.7242 69.415C28.1554 69.415 28.5082 69.0622 28.5082 68.631V66.3575H33.0552V68.631C33.0552 69.0622 33.408 69.415 33.8391 69.415C34.2703 69.415 34.6231 69.0622 34.6231 68.631V66.3575H39.1897V68.631C39.1897 69.0622 39.5425 69.415 39.9736 69.415C40.4048 69.415 40.7576 69.0622 40.7576 68.631V66.3575H45.3242V68.631C45.3242 69.0622 45.677 69.415 46.1082 69.415C46.5393 69.415 46.8921 69.0622 46.8921 68.631V66.3575H51.4783V68.631C51.4783 69.0622 51.8311 69.415 52.2623 69.415C52.6934 69.415 53.0462 69.0622 53.0462 68.631V66.3575H54.5946C56.3193 66.3575 57.7108 64.966 57.7108 63.2413V61.693H59.9843C60.4155 61.693 60.7683 61.3402 60.7683 60.909C60.7683 60.4778 60.4155 60.125 59.9843 60.125H57.7108V55.5584H59.9843C60.4155 55.5584 60.7683 55.2057 60.7683 54.7745C60.7683 54.3433 60.4155 53.9905 59.9843 53.9905H57.7108V49.4239H59.9843C60.4155 49.4239 60.7683 49.0712 60.7683 48.64C60.7683 48.2088 60.4155 47.856 59.9843 47.856H57.7108V43.2894H59.9843C60.4155 43.2894 60.7683 42.9366 60.7683 42.5055C60.7683 42.0743 60.4155 41.7215 59.9843 41.7215H57.7108V37.1549H59.9843C60.4155 37.1549 60.7683 36.8021 60.7683 36.371C60.7683 35.9398 60.4155 35.587 59.9843 35.587H57.7108V31.0204H59.9843ZM56.1429 24.1019V30.2365V36.371V42.5055V48.64V54.7745V60.909V63.2413C56.1429 64.084 55.4569 64.7896 54.5946 64.7896H13.0837C12.241 64.7896 11.5354 64.1036 11.5354 63.2413V21.7501C11.5354 20.9073 12.2214 20.2017 13.0837 20.2017H54.5946C55.4373 20.2017 56.1429 20.8877 56.1429 21.7501V24.1019Z" fill="#93A1C1"/>
<g clip-path="url(#clip1_17_14820)">
<path d="M656.389 -168.319H-552.5V493.972H656.389V-168.319Z" fill="white"/>
<path d="M83.8195 1.68066H1.18066V84.3195H83.8195V1.68066Z" fill="white"/>
<path fill-rule="evenodd" clip-rule="evenodd" d="M20.0693 26.4724V59.528H64.9304V26.4724H20.0693Z" stroke="#93A1C1" stroke-width="2"/>
<path d="M59.0283 31.1946H38.9589C38.3069 31.1946 37.7783 31.7231 37.7783 32.3751V52.4446C37.7783 53.0966 38.3069 53.6251 38.9589 53.6251H59.0283C59.6803 53.6251 60.2089 53.0966 60.2089 52.4446V32.3751C60.2089 31.7231 59.6803 31.1946 59.0283 31.1946Z" stroke="#93A1C1" stroke-width="2"/>
<path d="M53.1251 37.0974H44.8612C44.2092 37.0974 43.6807 37.626 43.6807 38.278V46.5419C43.6807 47.1939 44.2092 47.7224 44.8612 47.7224H53.1251C53.7771 47.7224 54.3057 47.1939 54.3057 46.5419V38.278C54.3057 37.626 53.7771 37.0974 53.1251 37.0974Z" stroke="#93A1C1" stroke-width="2"/>
<path d="M45.4521 34.146V36.5071" stroke="#93A1C1" stroke-width="2" stroke-linecap="round" stroke-linejoin="round"/>
<path d="M48.9932 34.146V36.5071" stroke="#93A1C1" stroke-width="2" stroke-linecap="round" stroke-linejoin="round"/>
<path d="M52.5352 34.146V36.5071" stroke="#93A1C1" stroke-width="2" stroke-linecap="round" stroke-linejoin="round"/>
<path d="M45.4521 48.3127V50.6739" stroke="#93A1C1" stroke-width="2" stroke-linecap="round" stroke-linejoin="round"/>
<path d="M48.9932 48.3127V50.6739" stroke="#93A1C1" stroke-width="2" stroke-linecap="round" stroke-linejoin="round"/>
<path d="M52.5352 48.3127V50.6739" stroke="#93A1C1" stroke-width="2" stroke-linecap="round" stroke-linejoin="round"/>
<path d="M40.7295 38.8682H43.0906" stroke="#93A1C1" stroke-width="2" stroke-linecap="round" stroke-linejoin="round"/>
<path d="M40.7295 42.4099H43.0906" stroke="#93A1C1" stroke-width="2" stroke-linecap="round" stroke-linejoin="round"/>
<path d="M40.7295 45.9514H43.0906" stroke="#93A1C1" stroke-width="2" stroke-linecap="round" stroke-linejoin="round"/>
<path d="M54.8965 38.8682H57.2576" stroke="#93A1C1" stroke-width="2" stroke-linecap="round" stroke-linejoin="round"/>
<path d="M54.8965 42.4099H57.2576" stroke="#93A1C1" stroke-width="2" stroke-linecap="round" stroke-linejoin="round"/>
<path d="M54.8965 45.9514H57.2576" stroke="#93A1C1" stroke-width="2" stroke-linecap="round" stroke-linejoin="round"/>
<path d="M28.333 41.8196V45.3612" stroke="#93A1C1" stroke-width="2" stroke-linecap="round" stroke-linejoin="round"/>
<path d="M29.5137 54.8057V58.3473" stroke="#93A1C1" stroke-width="2" stroke-linecap="round" stroke-linejoin="round"/>
<path d="M33.0557 54.8057V58.3473" stroke="#93A1C1" stroke-width="2" stroke-linecap="round" stroke-linejoin="round"/>
<path d="M25.9727 54.8057V58.3473" stroke="#93A1C1" stroke-width="2" stroke-linecap="round" stroke-linejoin="round"/>
<path d="M30.6949 26.4724H25.9727V40.6391H30.6949V26.4724Z" stroke="#93A1C1" stroke-width="2"/>
</g>
</g>
<defs>
<clipPath id="clip0_17_14820">
<rect width="85" height="85" fill="white" transform="translate(0 0.5)"/>
</clipPath>
<clipPath id="clip1_17_14820">
<rect width="85" height="85" fill="white" transform="translate(0 0.5)"/>
</clipPath>
</defs>
</svg>
