<svg width="85" height="86" viewBox="0 0 85 86" fill="none" xmlns="http://www.w3.org/2000/svg">
<path d="M38.6816 20.8867H23.4082C22.1465 20.8867 21.1172 21.916 21.1172 23.1777V56.7627C21.1172 58.0244 22.1465 59.0537 23.4082 59.0537H27.2266V60.5811H24.9355C24.6035 60.5811 24.3213 60.7969 24.2051 61.0957L22.6777 65.6777C22.5449 66.0762 22.7607 66.5078 23.1592 66.6406C23.2422 66.6738 23.3252 66.6738 23.4082 66.6738H38.6816C39.0967 66.6738 39.4453 66.3252 39.4453 65.9102C39.4453 65.8272 39.4287 65.7441 39.4121 65.6611L37.8848 61.0791C37.7852 60.7637 37.4863 60.5644 37.1543 60.5644H34.8633V59.0371H38.6816C39.9434 59.0371 40.9727 58.0078 40.9727 56.7461V23.1777C40.9727 21.916 39.9434 20.8867 38.6816 20.8867ZM24.1885 57.5264H23.4248C23.0098 57.5264 22.6611 57.1777 22.6611 56.7627V23.1777C22.6611 22.7627 23.0098 22.4141 23.4248 22.4141H24.1885V57.5264ZM36.6064 62.1084L37.6191 65.1631H24.4707L25.4834 62.1084H36.6064ZM28.7539 60.5811V59.0537H33.3359V60.5811H28.7539ZM36.3906 57.5264H25.6992V22.4141H36.3906V57.5264ZM39.4453 56.7627C39.4453 57.1777 39.0967 57.5264 38.6816 57.5264H37.918V22.4141H38.6816C39.0967 22.4141 39.4453 22.7627 39.4453 23.1777V56.7627Z" fill="#93A1C1"/>
<path d="M29.5176 55.999H32.5723C33.834 55.999 34.8633 54.9697 34.8633 53.708C34.8633 52.4463 33.834 51.417 32.5723 51.417H29.5176C28.2559 51.417 27.2266 52.4463 27.2266 53.708C27.2266 54.9863 28.2559 55.999 29.5176 55.999ZM29.5176 52.9443H32.5723C32.9873 52.9443 33.3359 53.293 33.3359 53.708C33.3359 54.123 32.9873 54.4717 32.5723 54.4717H29.5176C29.1025 54.4717 28.7539 54.123 28.7539 53.708C28.7539 53.293 29.1025 52.9443 29.5176 52.9443Z" fill="#93A1C1"/>
<path d="M27.2266 23.9414H28.7539V25.4687H27.2266V23.9414Z" fill="#93A1C1"/>
<path d="M30.2812 23.9414H31.8086V25.4687H30.2812V23.9414Z" fill="#93A1C1"/>
<path d="M33.3359 23.9414H34.8633V25.4687H33.3359V23.9414Z" fill="#93A1C1"/>
<path d="M28.7539 26.9961H30.2812V28.5234H28.7539V26.9961Z" fill="#93A1C1"/>
<path d="M31.8086 26.9961H33.3359V28.5234H31.8086V26.9961Z" fill="#93A1C1"/>
<path d="M27.2266 30.0508H28.7539V31.5781H27.2266V30.0508Z" fill="#93A1C1"/>
<path d="M30.2812 30.0508H31.8086V31.5781H30.2812V30.0508Z" fill="#93A1C1"/>
<path d="M33.3359 30.0508H34.8633V31.5781H33.3359V30.0508Z" fill="#93A1C1"/>
<path d="M28.7539 33.1055H30.2812V34.6328H28.7539V33.1055Z" fill="#93A1C1"/>
<path d="M31.8086 33.1055H33.3359V34.6328H31.8086V33.1055Z" fill="#93A1C1"/>
<path d="M27.2266 36.1602H28.7539V37.6875H27.2266V36.1602Z" fill="#93A1C1"/>
<path d="M30.2812 36.1602H31.8086V37.6875H30.2812V36.1602Z" fill="#93A1C1"/>
<path d="M33.3359 36.1602H34.8633V37.6875H33.3359V36.1602Z" fill="#93A1C1"/>
<path d="M28.7539 39.2148H30.2812V40.7422H28.7539V39.2148Z" fill="#93A1C1"/>
<path d="M31.8086 39.2148H33.3359V40.7422H31.8086V39.2148Z" fill="#93A1C1"/>
<path d="M27.2266 42.2695H28.7539V43.7969H27.2266V42.2695Z" fill="#93A1C1"/>
<path d="M30.2812 42.2695H31.8086V43.7969H30.2812V42.2695Z" fill="#93A1C1"/>
<path d="M33.3359 42.2695H34.8633V43.7969H33.3359V42.2695Z" fill="#93A1C1"/>
<path d="M27.2266 48.3789H28.7539V49.9063H27.2266V48.3789Z" fill="#93A1C1"/>
<path d="M30.2812 48.3789H31.8086V49.9063H30.2812V48.3789Z" fill="#93A1C1"/>
<path d="M33.3359 48.3789H34.8633V49.9063H33.3359V48.3789Z" fill="#93A1C1"/>
<path d="M28.7539 45.3242H30.2812V46.8516H28.7539V45.3242Z" fill="#93A1C1"/>
<path d="M31.8086 45.3242H33.3359V46.8516H31.8086V45.3242Z" fill="#93A1C1"/>
<path d="M61.5752 20.8867H46.3018C45.04 20.8867 44.0107 21.916 44.0107 23.1777V56.7627C44.0107 58.0244 45.04 59.0537 46.3018 59.0537H50.1201V60.5811H47.8291C47.4971 60.5811 47.2148 60.7969 47.0986 61.0957L45.5713 65.6777C45.4385 66.0762 45.6543 66.5078 46.0527 66.6406C46.1357 66.6738 46.2187 66.6738 46.3018 66.6738H61.5752C61.9902 66.6738 62.3389 66.3252 62.3389 65.9102C62.3389 65.8272 62.3223 65.7441 62.3057 65.6611L60.7783 61.0791C60.6787 60.7637 60.3799 60.5644 60.0479 60.5644H57.7734V59.0371H61.5918C62.8535 59.0371 63.8828 58.0078 63.8828 56.7461V23.1777C63.8662 21.916 62.8535 20.8867 61.5752 20.8867ZM47.082 57.5264H46.3184C45.9033 57.5264 45.5547 57.1777 45.5547 56.7627V23.1777C45.5547 22.7627 45.9033 22.4141 46.3184 22.4141H47.082V57.5264ZM59.5 62.1084L60.5127 65.1631H47.3643L48.377 62.1084H59.5ZM51.6641 60.5811V59.0537H56.2461V60.5811H51.6641ZM59.3008 57.5264H48.6094V22.4141H59.3008V57.5264ZM62.3389 56.7627C62.3389 57.1777 61.9902 57.5264 61.5752 57.5264H60.8115V22.4141H61.5752C61.9902 22.4141 62.3389 22.7627 62.3389 23.1777V56.7627Z" fill="#93A1C1"/>
<path d="M52.4277 55.999H55.4824C56.7441 55.999 57.7734 54.9697 57.7734 53.708C57.7734 52.4463 56.7441 51.417 55.4824 51.417H52.4277C51.166 51.417 50.1367 52.4463 50.1367 53.708C50.1367 54.9863 51.166 55.999 52.4277 55.999ZM52.4277 52.9443H55.4824C55.8975 52.9443 56.2461 53.293 56.2461 53.708C56.2461 54.123 55.8975 54.4717 55.4824 54.4717H52.4277C52.0127 54.4717 51.6641 54.123 51.6641 53.708C51.6641 53.293 51.9961 52.9443 52.4277 52.9443Z" fill="#93A1C1"/>
<path d="M50.1367 23.9414H51.6641V25.4687H50.1367V23.9414Z" fill="#93A1C1"/>
<path d="M53.1914 23.9414H54.7188V25.4687H53.1914V23.9414Z" fill="#93A1C1"/>
<path d="M56.2461 23.9414H57.7734V25.4687H56.2461V23.9414Z" fill="#93A1C1"/>
<path d="M51.6641 26.9961H53.1914V28.5234H51.6641V26.9961Z" fill="#93A1C1"/>
<path d="M54.7188 26.9961H56.2461V28.5234H54.7188V26.9961Z" fill="#93A1C1"/>
<path d="M50.1367 30.0508H51.6641V31.5781H50.1367V30.0508Z" fill="#93A1C1"/>
<path d="M53.1914 30.0508H54.7188V31.5781H53.1914V30.0508Z" fill="#93A1C1"/>
<path d="M56.2461 30.0508H57.7734V31.5781H56.2461V30.0508Z" fill="#93A1C1"/>
<path d="M51.6641 33.1055H53.1914V34.6328H51.6641V33.1055Z" fill="#93A1C1"/>
<path d="M54.7188 33.1055H56.2461V34.6328H54.7188V33.1055Z" fill="#93A1C1"/>
<path d="M50.1367 36.1602H51.6641V37.6875H50.1367V36.1602Z" fill="#93A1C1"/>
<path d="M53.1914 36.1602H54.7188V37.6875H53.1914V36.1602Z" fill="#93A1C1"/>
<path d="M56.2461 36.1602H57.7734V37.6875H56.2461V36.1602Z" fill="#93A1C1"/>
<path d="M51.6641 39.2148H53.1914V40.7422H51.6641V39.2148Z" fill="#93A1C1"/>
<path d="M54.7188 39.2148H56.2461V40.7422H54.7188V39.2148Z" fill="#93A1C1"/>
<path d="M50.1367 42.2695H51.6641V43.7969H50.1367V42.2695Z" fill="#93A1C1"/>
<path d="M53.1914 42.2695H54.7188V43.7969H53.1914V42.2695Z" fill="#93A1C1"/>
<path d="M56.2461 42.2695H57.7734V43.7969H56.2461V42.2695Z" fill="#93A1C1"/>
<path d="M50.1367 48.3789H51.6641V49.9063H50.1367V48.3789Z" fill="#93A1C1"/>
<path d="M53.1914 48.3789H54.7188V49.9063H53.1914V48.3789Z" fill="#93A1C1"/>
<path d="M56.2461 48.3789H57.7734V49.9063H56.2461V48.3789Z" fill="#93A1C1"/>
<path d="M51.6641 45.3242H53.1914V46.8516H51.6641V45.3242Z" fill="#93A1C1"/>
<path d="M54.7188 45.3242H56.2461V46.8516H54.7188V45.3242Z" fill="#93A1C1"/>
</svg>
