<svg width="85" height="86" viewBox="0 0 85 86" fill="none" xmlns="http://www.w3.org/2000/svg">
<g clip-path="url(#clip0_17_18457)">
<path d="M916.112 -168.319H-292.777V493.972H916.112V-168.319Z" fill="white"/>
<path d="M83.8195 1.68054H1.18066V84.3194H83.8195V1.68054Z" fill="white"/>
<path d="M29.9791 47.8532V50.0355C29.9791 50.278 29.8579 50.3993 29.6154 50.3993H27.4331C27.1906 50.3993 27.0694 50.278 27.0694 50.0355V47.8532C27.0694 47.6107 27.1906 47.4895 27.4331 47.4895H29.6154C29.8579 47.4895 29.9791 47.6107 29.9791 47.8532ZM32.8889 40.8531V43.0354C32.8889 43.2779 32.7676 43.3992 32.5251 43.3992H27.4331C27.1906 43.3992 27.0693 43.2779 27.0693 43.0354V40.8531C27.0693 40.6106 27.1906 40.4894 27.4331 40.4894H32.5251C32.7676 40.4894 32.8889 40.6106 32.8889 40.8531ZM29.9791 35.0336V37.2159C29.9791 37.4584 29.8579 37.5796 29.6154 37.5796H27.4331C27.1906 37.5796 27.0694 37.4584 27.0694 37.2159V35.0336C27.0694 34.7911 27.1906 34.6699 27.4331 34.6699H29.6154C29.8579 34.6699 29.9791 34.7911 29.9791 35.0336ZM53.2572 47.8532V50.0355C53.2572 50.278 53.136 50.3993 52.8935 50.3993H33.2526C33.0101 50.3993 32.8889 50.278 32.8889 50.0355V47.8532C32.8889 47.6107 33.0101 47.4895 33.2526 47.4895H52.8935C53.136 47.4895 53.2572 47.6107 53.2572 47.8532ZM38.7084 40.8531V43.0354C38.7084 43.2779 38.5872 43.3992 38.3447 43.3992H36.1624C35.9199 43.3992 35.7986 43.2779 35.7986 43.0354V40.8531C35.7986 40.6106 35.9199 40.4894 36.1624 40.4894H38.3447C38.5872 40.4894 38.7084 40.6106 38.7084 40.8531ZM35.7986 35.0336V37.2159C35.7986 37.4584 35.6774 37.5796 35.4349 37.5796H33.2526C33.0101 37.5796 32.8889 37.4584 32.8889 37.2159V35.0336C32.8889 34.7911 33.0101 34.6699 33.2526 34.6699H35.4349C35.6774 34.6699 35.7986 34.7911 35.7986 35.0336ZM44.528 40.8531V43.0354C44.528 43.2779 44.4067 43.3992 44.1642 43.3992H41.9819C41.7394 43.3992 41.6182 43.2779 41.6182 43.0354V40.8531C41.6182 40.6106 41.7394 40.4894 41.9819 40.4894H44.1642C44.4067 40.4894 44.528 40.6106 44.528 40.8531ZM41.6182 35.0336V37.2159C41.6182 37.4584 41.4969 37.5796 41.2545 37.5796H39.0721C38.8297 37.5796 38.7084 37.4584 38.7084 37.2159V35.0336C38.7084 34.7911 38.8297 34.6699 39.0721 34.6699H41.2545C41.4969 34.6699 41.6182 34.7911 41.6182 35.0336ZM50.3475 40.8531V43.0354C50.3475 43.2779 50.2262 43.3992 49.9838 43.3992H47.8014C47.559 43.3992 47.4377 43.2779 47.4377 43.0354V40.8531C47.4377 40.6106 47.559 40.4894 47.8014 40.4894H49.9838C50.2262 40.4894 50.3475 40.6106 50.3475 40.8531ZM59.0768 47.8532V50.0355C59.0768 50.278 58.9555 50.3993 58.713 50.3993H56.5307C56.2882 50.3993 56.167 50.278 56.167 50.0355V47.8532C56.167 47.6107 56.2882 47.4895 56.5307 47.4895H58.713C58.9555 47.4895 59.0768 47.6107 59.0768 47.8532ZM47.4377 35.0336V37.2159C47.4377 37.4584 47.3165 37.5796 47.074 37.5796H44.8917C44.6492 37.5796 44.528 37.4584 44.528 37.2159V35.0336C44.528 34.7911 44.6492 34.6699 44.8917 34.6699H47.074C47.3165 34.6699 47.4377 34.7911 47.4377 35.0336ZM53.2572 35.0336V37.2159C53.2572 37.4584 53.136 37.5796 52.8935 37.5796H50.7112C50.4687 37.5796 50.3475 37.4584 50.3475 37.2159V35.0336C50.3475 34.7911 50.4687 34.6699 50.7112 34.6699H52.8935C53.136 34.6699 53.2572 34.7911 53.2572 35.0336ZM59.0768 35.0336V43.0354C59.0768 43.2779 58.9555 43.3992 58.713 43.3992H53.6209C53.3785 43.3992 53.2572 43.2779 53.2572 43.0354V40.8531C53.2572 40.6106 53.3785 40.4894 53.6209 40.4894H56.167V35.0336C56.167 34.7911 56.2882 34.6699 56.5307 34.6699H58.713C58.9555 34.6699 59.0768 34.7911 59.0768 35.0336Z" fill="#93A1C1"/>
<path fill-rule="evenodd" clip-rule="evenodd" d="M22.4304 28.8333C21.1264 28.8333 20.0693 29.8904 20.0693 31.1944V53.625C20.0693 54.929 21.1264 55.9861 22.4304 55.9861H62.5693C63.8733 55.9861 64.9304 54.929 64.9304 53.625V31.1944C64.9304 29.8904 63.8733 28.8333 62.5693 28.8333H22.4304Z" stroke="#93A1C1" stroke-width="2"/>
</g>
<defs>
<clipPath id="clip0_17_18457">
<rect width="85" height="85" fill="white" transform="translate(0 0.5)"/>
</clipPath>
</defs>
</svg>
