<svg width="85" height="86" viewBox="0 0 85 86" fill="none" xmlns="http://www.w3.org/2000/svg">
<path d="M65.3207 32.7965L63.0848 27.5794C62.9606 27.3132 62.6944 27.1357 62.3927 27.1357H23.6724C23.3708 27.1357 23.1046 27.3132 22.9804 27.5794L20.7622 32.7787V32.7965C20.7267 32.8675 20.709 32.9562 20.709 33.0449C20.709 33.0627 20.709 33.0627 20.709 33.0804V61.3664C20.709 61.7746 21.0461 62.1117 21.4543 62.1117H64.6286C65.0368 62.1117 65.3739 61.7746 65.3739 61.3664V33.0804C65.3739 33.0627 65.3739 33.0627 65.3739 33.0449C65.3562 32.9562 65.3384 32.8852 65.3207 32.7965ZM24.1693 28.6086H61.8958L63.4929 32.3351H22.5722L24.1693 28.6086ZM63.8833 60.6211H22.1996V33.8257H63.8833V60.6211Z" fill="#93A1C1"/>
<path d="M52.4018 45.7683C52.5438 45.9102 52.739 45.9812 52.9342 45.9812H58.8966C59.0918 45.9812 59.287 45.9102 59.4289 45.7683L61.6649 43.5324C61.8068 43.3904 61.8778 43.1952 61.8778 43V39.2735C61.8778 38.8654 61.5406 38.5282 61.1325 38.5282H50.716C50.3079 38.5282 49.9707 38.8654 49.9707 39.2735V43C49.9707 43.1952 50.0417 43.3904 50.1836 43.5324L52.4018 45.7683ZM51.4258 40.0365H60.3517V42.6983L58.5594 44.5084H53.2358L51.4436 42.7161V40.0365H51.4258Z" fill="#93A1C1"/>
<path d="M54.1937 42.0595C54.2647 41.9885 54.3179 41.8998 54.3534 41.8111C54.3889 41.7224 54.4066 41.6336 54.4066 41.5272C54.4066 41.119 54.0695 40.7819 53.6613 40.7819C53.2532 40.7819 52.916 41.119 52.916 41.5272C52.916 41.6159 52.9338 41.7224 52.9692 41.8111C53.0047 41.8998 53.058 41.9885 53.129 42.0595C53.4306 42.3434 53.892 42.3434 54.1937 42.0595Z" fill="#93A1C1"/>
<path d="M55.6137 43.6921C55.8976 43.8163 56.2171 43.7453 56.43 43.5324C56.501 43.4614 56.5542 43.3727 56.5897 43.2839C56.6252 43.1952 56.643 43.1065 56.643 43C56.643 42.6983 56.4655 42.4322 56.1816 42.3079C55.8976 42.1837 55.5782 42.2547 55.3653 42.4677C55.2233 42.6096 55.1523 42.8048 55.1523 43C55.1523 43.1952 55.2233 43.3904 55.3653 43.5324C55.4363 43.6034 55.525 43.6566 55.6137 43.6921Z" fill="#93A1C1"/>
<path d="M57.6016 42.0596C57.9033 42.3435 58.3647 42.3435 58.6663 42.0596C58.7373 41.9886 58.7906 41.8998 58.826 41.8111C58.8615 41.7224 58.8793 41.6337 58.8793 41.5272C58.8793 41.332 58.7906 41.1368 58.6663 40.9948C58.4889 40.8174 58.2404 40.7464 57.992 40.7996C57.9388 40.7996 57.9033 40.8174 57.8501 40.8529C57.7968 40.8706 57.7613 40.8884 57.7081 40.9239C57.6726 40.9593 57.6371 40.9771 57.6016 41.0126C57.4597 41.1545 57.3887 41.3497 57.3887 41.5449C57.3887 41.6514 57.4064 41.7401 57.4419 41.8289C57.4774 41.8998 57.5306 41.9886 57.6016 42.0596Z" fill="#93A1C1"/>
<path d="M60.3694 51.9436H51.4435C51.0354 51.9436 50.6982 52.2808 50.6982 52.6889V57.1607C50.6982 57.5689 51.0354 57.906 51.4435 57.906H60.3694C60.7776 57.906 61.1147 57.5689 61.1147 57.1607V52.6889C61.1147 52.2808 60.7776 51.9436 60.3694 51.9436ZM52.1711 53.4342H55.1523V56.4154H52.1711V53.4342ZM59.6241 56.4154H56.6429V53.4342H59.6241V56.4154Z" fill="#93A1C1"/>
<path d="M23.885 59.3967H26.8662V57.9061H24.6303V55.6702H23.1396V58.6514C23.1396 59.0595 23.4768 59.3967 23.885 59.3967Z" fill="#93A1C1"/>
<path d="M45.481 39.2912H46.9716V36.31C46.9716 35.9019 46.6345 35.5647 46.2263 35.5647H43.2451V37.0553H45.481V39.2912Z" fill="#93A1C1"/>
<path d="M24.6303 37.0553H26.8662V35.5647H23.885C23.4768 35.5647 23.1396 35.9019 23.1396 36.31V39.2912H24.6303V37.0553Z" fill="#93A1C1"/>
<path d="M45.481 57.9061H43.2451V59.3967H46.2263C46.6345 59.3967 46.9716 59.0595 46.9716 58.6514V55.6702H45.481V57.9061Z" fill="#93A1C1"/>
<path d="M35.0466 36.3101C28.8712 36.3101 23.8848 41.3142 23.8848 47.4719C23.8848 53.6295 28.8889 58.6336 35.0466 58.6336C41.2042 58.6336 46.2084 53.6295 46.2084 47.4719C46.2084 41.3142 41.2219 36.3278 35.0466 36.3101ZM41.3461 52.7245C43.8837 49.69 43.8837 45.2892 41.3461 42.2547L42.3931 41.2078C45.5163 44.8278 45.5163 50.1691 42.3931 53.7892L41.3461 52.7245ZM38.7731 47.4896C38.7731 48.2172 38.5601 48.927 38.152 49.5303L37.0518 48.4301C37.3534 47.8268 37.3534 47.1169 37.0518 46.5136L38.152 45.4134C38.5601 46.0345 38.7731 46.7443 38.7731 47.4896ZM31.3378 47.4896C31.3378 46.762 31.5507 46.0522 31.9589 45.4489L33.0591 46.5491C32.7574 47.1524 32.7574 47.8622 33.0591 48.4656L31.9589 49.5658C31.5507 48.927 31.3378 48.2172 31.3378 47.4896ZM34.3013 47.4896C34.3013 47.0815 34.6384 46.7443 35.0466 46.7443C35.4547 46.7443 35.7919 47.0815 35.7919 47.4896C35.7919 47.8977 35.4547 48.2349 35.0466 48.2349C34.6384 48.2349 34.3013 47.8977 34.3013 47.4896ZM36.0048 45.4666C35.4015 45.165 34.6917 45.165 34.0883 45.4666L32.9881 44.3664C34.2303 43.5324 35.8451 43.5324 37.0873 44.3664L36.0048 45.4666ZM34.0883 49.4948C34.6917 49.7965 35.4015 49.7965 36.0048 49.4948L37.105 50.595C35.8628 51.4291 34.248 51.4291 33.0058 50.595L34.0883 49.4948ZM38.1697 43.3195C36.3242 41.9353 33.7866 41.9353 31.9411 43.3195L30.8764 42.2547C33.3075 40.3028 36.7856 40.3028 39.2345 42.2547L38.1697 43.3195ZM30.8764 44.3664C29.4923 46.2119 29.4923 48.7495 30.8764 50.595L29.8117 51.6597C27.8597 49.2286 27.8597 45.7506 29.8117 43.3017L30.8764 44.3664ZM31.9411 51.642C33.7866 53.0261 36.3242 53.0261 38.1697 51.642L39.2345 52.7067C36.8033 54.6587 33.3253 54.6587 30.8764 52.7067L31.9411 51.642ZM39.2167 50.595C40.6008 48.7495 40.6008 46.2119 39.2167 44.3664L40.2814 43.3017C42.2334 45.7328 42.2334 49.2109 40.2814 51.6597L39.2167 50.595ZM41.3461 40.143L40.2992 41.19C37.2647 38.6524 32.8639 38.6524 29.8294 41.19L28.7825 40.143C32.3848 37.0199 37.7261 37.0199 41.3461 40.143ZM27.7177 41.19L28.7647 42.237C26.2271 45.2714 26.2271 49.6723 28.7647 52.7067L27.7177 53.7537C24.5946 50.1514 24.5946 44.8101 27.7177 41.19ZM28.7647 54.8184L29.8117 53.7714C32.8461 56.309 37.247 56.309 40.2814 53.7714L41.3284 54.8184C37.7261 57.9416 32.3848 57.9416 28.7647 54.8184Z" fill="#93A1C1"/>
</svg>
