<svg width="85" height="86" viewBox="0 0 85 86" fill="none" xmlns="http://www.w3.org/2000/svg">
<path d="M30.8455 65.9434C30.4138 65.9434 30.0154 65.7773 29.7166 65.4785L23.5408 59.3027C23.0261 58.7715 22.9265 57.9746 23.3083 57.3438C23.657 56.7461 23.5408 55.9824 23.0593 55.4844C22.5613 54.9863 21.8142 54.8867 21.2 55.2354C20.5691 55.6172 19.7556 55.5176 19.241 55.0029L18.6101 54.3721C17.9958 53.7412 17.9958 52.7451 18.6101 52.1143L51.3484 19.376C51.9792 18.7617 52.9753 18.7617 53.6062 19.376L54.2371 20.0068C54.7517 20.5381 54.8513 21.335 54.4695 21.9658C54.1208 22.5635 54.2371 23.3271 54.7185 23.8252C55.2 24.3232 55.9636 24.4229 56.5779 24.0742C57.2087 23.6924 58.0222 23.792 58.5369 24.3066L64.7126 30.4824C65.3435 31.1133 65.3269 32.1094 64.7126 32.7402L31.9744 65.4619C31.6755 65.7773 31.2605 65.9434 30.8455 65.9434ZM21.9802 53.4092C22.8103 53.4092 23.6072 53.7412 24.2048 54.3223C25.2175 55.335 25.4167 56.8789 24.7195 58.124L30.8621 64.3164L63.5671 31.5781L57.3914 25.4355C56.1628 26.166 54.5857 25.9668 53.573 24.9541C52.5603 23.9414 52.3611 22.3975 53.0583 21.1523L52.4607 20.5215L19.7556 53.2598L20.3865 53.8408C20.8679 53.5586 21.4158 53.4092 21.9802 53.4092Z" fill="#93A1C1"/>
<path d="M34.7299 67.6034C34.2983 67.6034 33.8998 67.4374 33.601 67.1386L31.3764 64.914C31.1606 64.7148 31.0776 64.4159 31.1606 64.1171C31.227 63.8349 31.4594 63.6191 31.7416 63.5361C32.0239 63.4697 32.3227 63.5527 32.5385 63.7519L34.7631 65.9765L41.935 58.7548L39.7104 56.58C39.3949 56.2646 39.4116 55.7499 39.727 55.4345C40.0424 55.1191 40.5405 55.1191 40.8725 55.4179L43.0971 57.6425C43.7114 58.2734 43.7114 59.2695 43.0971 59.9003L35.8588 67.1386C35.56 67.4374 35.1449 67.6034 34.7299 67.6034Z" fill="#93A1C1"/>
<path d="M46.9321 55.3848C46.5004 55.3848 46.102 55.2187 45.8031 54.9199L43.5785 52.6953C43.2797 52.3799 43.2797 51.8652 43.5951 51.5664C43.9106 51.2676 44.4086 51.251 44.724 51.5498L46.9486 53.7744L65.2436 35.4629L63.019 33.2881C62.7035 32.9727 62.7201 32.458 63.019 32.1426C63.3344 31.8271 63.849 31.8271 64.1645 32.1426L66.3891 34.3672C67.0199 34.998 67.0033 35.9941 66.3891 36.625L48.061 54.9199C47.7621 55.2187 47.3637 55.4014 46.9321 55.3848Z" fill="#93A1C1"/>
<path d="M37.5028 65.1464C37.287 65.1464 37.0878 65.0634 36.9218 64.914L34.1493 62.1415C33.8339 61.8261 33.8505 61.3114 34.1659 60.996C34.4814 60.6806 34.9794 60.6806 35.3114 60.9794L38.0839 63.7519C38.3163 63.9843 38.3827 64.3329 38.2665 64.6318C38.1337 64.9472 37.8349 65.1464 37.5028 65.1464Z" fill="#93A1C1"/>
<path d="M40.2747 62.374C40.0588 62.374 39.8596 62.291 39.6936 62.1416L36.9211 59.3691C36.6057 59.0537 36.6057 58.5391 36.9211 58.2236C37.2366 57.9082 37.7512 57.9082 38.0667 58.2236L40.8391 60.9961C41.0715 61.2285 41.1379 61.5771 41.0217 61.876C40.9055 62.1748 40.6067 62.374 40.2747 62.374Z" fill="#93A1C1"/>
<path d="M49.7216 52.9443C49.5058 52.9443 49.3066 52.8612 49.1405 52.7118L46.3681 49.9394C46.0527 49.6239 46.0693 49.1093 46.3847 48.7939C46.7001 48.4784 47.1982 48.4784 47.5302 48.7773L50.3027 51.5497C50.5351 51.7821 50.6015 52.1308 50.4853 52.4296C50.3359 52.745 50.037 52.9443 49.7216 52.9443Z" fill="#93A1C1"/>
<path d="M52.4941 50.1718C52.2782 50.1718 52.079 50.0888 51.913 49.9394L49.1405 47.1503C48.8251 46.8349 48.8417 46.3202 49.1571 46.0048C49.4726 45.6894 49.9706 45.6894 50.3027 45.9882L53.0751 48.7607C53.3075 48.9931 53.3739 49.3417 53.2577 49.6405C53.1083 49.9726 52.8261 50.1718 52.4941 50.1718Z" fill="#93A1C1"/>
<path d="M55.2665 47.3994C55.0507 47.3994 54.8515 47.3164 54.6855 47.167L51.913 44.3945C51.5976 44.0791 51.6142 43.5645 51.913 43.249C52.2284 42.9336 52.7431 42.9336 53.0585 43.249L55.831 46.0215C56.0634 46.2539 56.1298 46.6025 56.0136 46.9014C55.8974 47.2002 55.5985 47.3994 55.2665 47.3994Z" fill="#93A1C1"/>
<path d="M58.0385 44.6104C57.8227 44.6104 57.6235 44.5274 57.4574 44.378L54.685 41.6055C54.4692 41.4063 54.3862 41.1075 54.4692 40.8252C54.5522 40.543 54.768 40.3272 55.0502 40.2442C55.3324 40.1778 55.6313 40.2608 55.8305 40.46L58.603 43.2325C58.8354 43.4649 58.9018 43.8135 58.7856 44.1124C58.6694 44.4278 58.3705 44.6104 58.0385 44.6104Z" fill="#93A1C1"/>
<path d="M60.811 41.8379C60.5951 41.8379 60.3959 41.7549 60.2299 41.6055L57.4575 38.8331C57.2416 38.6338 57.1586 38.335 57.2416 38.0362C57.308 37.754 57.5405 37.5381 57.8227 37.4551C58.1049 37.3721 58.4037 37.4717 58.6196 37.671L61.392 40.4434C61.6244 40.6758 61.6908 41.0245 61.5746 41.3233C61.4418 41.6387 61.143 41.8379 60.811 41.8379Z" fill="#93A1C1"/>
<path d="M63.5839 39.0654C63.3681 39.0654 63.1689 38.9824 63.0029 38.833L60.2304 36.0605C59.915 35.7451 59.9316 35.2305 60.2304 34.915C60.5458 34.5996 61.0605 34.5996 61.3759 34.915L64.1484 37.6875C64.3808 37.9199 64.4472 38.2686 64.331 38.5674C64.2148 38.8662 63.9159 39.0654 63.5839 39.0654Z" fill="#93A1C1"/>
<path d="M31.9575 59.2695C31.5259 59.2695 31.1108 59.1035 30.812 58.7881L25.3003 53.2764C24.6694 52.6455 24.6694 51.6162 25.3003 50.9854L29.1519 47.1338C29.7827 46.5029 30.812 46.5029 31.4429 47.1338L36.9546 52.6455C37.5855 53.2764 37.5855 54.3057 36.9546 54.9365L33.103 58.7881C32.8042 59.1035 32.3892 59.2695 31.9575 59.2695ZM30.2974 48.2793L26.4458 52.1309L31.9575 57.6426L35.8091 53.791L30.2974 48.2793Z" fill="#93A1C1"/>
<path d="M39.1626 52.0479C38.731 52.0479 38.3159 51.8818 38.0171 51.5664L32.5054 46.0547C31.8745 45.4238 31.8745 44.3945 32.5054 43.7637L36.3569 39.9121C36.9878 39.2812 38.0171 39.2812 38.6479 39.9121L44.1597 45.4238C44.4585 45.7227 44.6411 46.1377 44.6411 46.5693C44.6411 47.001 44.4751 47.416 44.1597 47.7148L40.3081 51.5664C40.0093 51.8818 39.5942 52.0479 39.1626 52.0479ZM37.5024 41.0742L33.6509 44.9258L39.1626 50.4375L43.0142 46.5859L37.5024 41.0742Z" fill="#93A1C1"/>
<path d="M46.3843 44.8428C45.9526 44.8428 45.5376 44.6768 45.2388 44.3613L39.7271 38.8496C39.0962 38.2187 39.0962 37.1895 39.7271 36.5586L43.5786 32.707C43.8774 32.4082 44.2925 32.2256 44.7241 32.2256C45.1558 32.2256 45.5708 32.3916 45.8696 32.707L51.3813 38.2187C51.6802 38.5176 51.8628 38.9326 51.8628 39.3643C51.8628 39.7959 51.6968 40.2109 51.3813 40.5098L47.5298 44.3613C47.231 44.6602 46.8159 44.8428 46.3843 44.8428ZM44.7241 33.8525L40.8726 37.7041L46.3843 43.2158L50.2358 39.3643L44.7241 33.8525Z" fill="#93A1C1"/>
<path d="M53.606 37.6211C53.1743 37.6211 52.7593 37.4551 52.4605 37.1396L46.9487 31.6279C46.3179 30.9971 46.3179 29.9678 46.9487 29.3369L50.8003 25.4854C51.0991 25.1865 51.5142 25.0039 51.9458 25.0039C52.3774 25.0039 52.7925 25.1699 53.0913 25.4854L58.603 30.9971C58.9019 31.2959 59.0845 31.7109 59.0845 32.1426C59.0845 32.5742 58.9185 32.9893 58.603 33.2881L54.7515 37.1396C54.436 37.4551 54.0376 37.6211 53.606 37.6211ZM51.9292 26.6475L48.0776 30.499L53.5894 36.0107L57.4409 32.1592L51.9292 26.6475Z" fill="#93A1C1"/>
</svg>
