<svg width="85" height="86" viewBox="0 0 85 86" fill="none" xmlns="http://www.w3.org/2000/svg">
<path d="M36.1914 41.6387C36.1914 41.1572 36.6396 40.875 37.4199 40.875C38.333 40.875 38.582 41.2568 38.9141 41.2568C39.3125 41.2568 39.4785 40.792 39.4785 40.5762C39.4785 39.9121 38.0508 39.7793 37.4199 39.7793C36.1748 39.7793 34.7803 40.2939 34.7803 41.7715C34.7803 44.1289 38.2666 43.6807 38.2666 45.1748C38.2666 45.7725 37.7021 46.0381 37.0547 46.0381C35.9424 46.0381 35.6436 45.2744 35.2119 45.2744C34.8799 45.2744 34.5977 45.6895 34.5977 45.9717C34.5977 46.5527 35.6934 47.2168 37.1045 47.2168C38.5986 47.2168 39.6943 46.4863 39.6943 45.0586C39.6943 42.4521 36.1914 42.8838 36.1914 41.6387Z" fill="#93A1C1"/>
<path d="M41.6533 40.0449C40.9727 40.3271 40.4746 40.875 40.4746 41.7714C40.4746 44.1289 43.9609 43.6806 43.9609 45.1748C43.9609 45.7724 43.3965 46.038 42.749 46.038C41.6367 46.038 41.3379 45.2744 40.9062 45.2744C40.5742 45.2744 40.292 45.6894 40.292 45.9716C40.292 46.5527 41.3877 47.2168 42.7988 47.2168C44.293 47.2168 45.3887 46.4863 45.3887 45.0586C45.3887 42.4687 41.9023 42.9003 41.9023 41.6718C41.9023 41.1904 42.3506 40.9082 43.1309 40.9082C44.0439 40.9082 44.293 41.29 44.625 41.29C45.0234 41.29 45.1895 40.8252 45.1895 40.6093C45.1895 39.9453 43.7617 39.8125 43.1309 39.8125C42.5996 39.7627 42.085 39.8457 41.6533 40.0449Z" fill="#93A1C1"/>
<path d="M46.335 45.9717V46.7021C46.335 46.918 46.584 47.1006 46.9492 47.1006H48.875C50.3027 47.1006 51.4316 46.4863 51.4316 44.8096V42.0869C51.4316 40.4268 50.3193 39.7959 48.875 39.7959H46.9492C46.584 39.7959 46.335 39.9785 46.335 40.1943V45.9717ZM47.7461 40.958H48.875C49.5889 40.958 50.0205 41.3232 50.0205 42.1035V44.8262C50.0205 45.6064 49.5889 45.9717 48.875 45.9717H47.7461V40.958Z" fill="#93A1C1"/>
<path d="M63.0029 42.4023V67.0723C63.0029 68.2676 62.04 69.2305 60.8447 69.2305H25.8154C24.6201 69.2305 23.6572 68.2676 23.6572 67.0723V56.5967C23.6572 56.165 23.3086 55.8164 22.877 55.8164C22.4453 55.8164 22.0967 56.165 22.0967 56.5967V67.0723C22.0967 69.1309 23.7734 70.791 25.8154 70.791H60.8613C62.9199 70.791 64.5801 69.1143 64.5801 67.0723V33.9023C64.5801 33.4707 64.2314 33.1221 63.7998 33.1221C63.3682 33.1221 63.0195 33.4707 63.0195 33.9023V42.4023" fill="#93A1C1"/>
<path d="M30.9619 18.7285H60.8447C62.04 18.7285 63.0029 19.6914 63.0029 20.8867V29.7188C63.0029 30.1504 63.3516 30.499 63.7832 30.499C64.2148 30.499 64.5635 30.1504 64.5635 29.7188V20.8867C64.5635 18.8281 62.8867 17.168 60.8447 17.168H25.8154C23.7568 17.168 22.0967 18.8447 22.0967 20.8867V52.4131C22.0967 52.8447 22.4453 53.1934 22.877 53.1934C23.3086 53.1934 23.6572 52.8447 23.6572 52.4131V20.8701C23.6572 19.6748 24.6201 18.7119 25.8154 18.7119H30.9619" fill="#93A1C1"/>
<path d="M48.6758 59.2695H51.6641V61.5771C51.6641 62.0088 52.0127 62.3574 52.4443 62.3574C52.876 62.3574 53.2246 62.0088 53.2246 61.5771V59.2695H54.2373C55.3828 59.2695 56.3125 58.3398 56.3125 57.1943V30.748C56.3125 29.6025 55.3828 28.6729 54.2373 28.6729H53.2246V26.3652C53.2246 25.9336 52.876 25.585 52.4443 25.585C52.0127 25.585 51.6641 25.9336 51.6641 26.3652V28.6729H48.6758V26.3652C48.6758 25.9336 48.3271 25.585 47.8955 25.585C47.4639 25.585 47.1152 25.9336 47.1152 26.3652V28.6729H44.127V26.3652C44.127 25.9336 43.7783 25.585 43.3467 25.585C42.915 25.585 42.5664 25.9336 42.5664 26.3652V28.6729H39.5781V26.3652C39.5781 25.9336 39.2295 25.585 38.7979 25.585C38.3662 25.585 38.0176 25.9336 38.0176 26.3652V28.6729H35.0293V26.3652C35.0293 25.9336 34.6807 25.585 34.249 25.585C33.8174 25.585 33.4688 25.9336 33.4688 26.3652V28.6729H32.4561C31.3105 28.6729 30.3809 29.6025 30.3809 30.748V57.2109C30.3809 58.3564 31.3105 59.2861 32.4561 59.2861H33.4688V61.5938C33.4688 62.0254 33.8174 62.374 34.249 62.374C34.6807 62.374 35.0293 62.0254 35.0293 61.5938V59.2695H38.0176V61.5771C38.0176 62.0088 38.3662 62.3574 38.7979 62.3574C39.2295 62.3574 39.5781 62.0088 39.5781 61.5771V59.2695H42.5664V61.5771C42.5664 62.0088 42.915 62.3574 43.3467 62.3574C43.7783 62.3574 44.127 62.0088 44.127 61.5771V59.2695H47.1152V61.5771C47.1152 62.0088 47.4639 62.3574 47.8955 62.3574C48.3271 62.3574 48.6758 62.0088 48.6758 61.5771V59.2695ZM54.7354 57.2109C54.7354 57.4766 54.5195 57.709 54.2373 57.709H32.4229C32.1572 57.709 31.9248 57.4932 31.9248 57.2109V30.748C31.9248 30.4824 32.1406 30.25 32.4229 30.25H54.2539C54.5195 30.25 54.752 30.4658 54.752 30.748L54.7354 57.2109Z" fill="#93A1C1"/>
<path d="M28.5215 20.7207C26.9111 20.7207 25.5996 22.0322 25.5996 23.6426C25.5996 25.2529 26.9111 26.5645 28.5215 26.5645C30.1318 26.5645 31.4434 25.2529 31.4434 23.6426C31.4434 22.0322 30.1318 20.7207 28.5215 20.7207ZM28.5215 24.9873C27.7744 24.9873 27.1768 24.3896 27.1768 23.6426C27.1768 22.8955 27.7744 22.2979 28.5215 22.2979C29.2686 22.2979 29.8662 22.8955 29.8662 23.6426C29.8662 24.3896 29.2686 24.9873 28.5215 24.9873Z" fill="#93A1C1"/>
<path d="M58.1387 20.7207C56.5283 20.7207 55.2168 22.0322 55.2168 23.6426C55.2168 25.2529 56.5283 26.5645 58.1387 26.5645C59.749 26.5645 61.0605 25.2529 61.0605 23.6426C61.0605 22.0322 59.749 20.7207 58.1387 20.7207ZM58.1387 24.9873C57.3916 24.9873 56.7939 24.3896 56.7939 23.6426C56.7939 22.8955 57.3916 22.2979 58.1387 22.2979C58.8857 22.2979 59.4834 22.8955 59.4834 23.6426C59.4834 24.3896 58.8857 24.9873 58.1387 24.9873Z" fill="#93A1C1"/>
<path d="M28.5215 61.3945C26.9111 61.3945 25.5996 62.7061 25.5996 64.3164C25.5996 65.9268 26.9111 67.2383 28.5215 67.2383C30.1318 67.2383 31.4434 65.9268 31.4434 64.3164C31.4434 62.7061 30.1318 61.3945 28.5215 61.3945ZM28.5215 65.6611C27.7744 65.6611 27.1768 65.0635 27.1768 64.3164C27.1768 63.5693 27.7744 62.9717 28.5215 62.9717C29.2686 62.9717 29.8662 63.5693 29.8662 64.3164C29.8662 65.0635 29.2686 65.6611 28.5215 65.6611Z" fill="#93A1C1"/>
<path d="M58.1387 61.3945C56.5283 61.3945 55.2168 62.7061 55.2168 64.3164C55.2168 65.9268 56.5283 67.2383 58.1387 67.2383C59.749 67.2383 61.0605 65.9268 61.0605 64.3164C61.0605 62.7061 59.749 61.3945 58.1387 61.3945ZM58.1387 65.6611C57.3916 65.6611 56.7939 65.0635 56.7939 64.3164C56.7939 63.5693 57.3916 62.9717 58.1387 62.9717C58.8857 62.9717 59.4834 63.5693 59.4834 64.3164C59.5 65.0635 58.8857 65.6611 58.1387 65.6611Z" fill="#93A1C1"/>
</svg>
