<svg width="32" height="32" viewBox="0 0 32 32" fill="none" xmlns="http://www.w3.org/2000/svg">
<g id="Regular/Bell">
<path id="Vector" d="M7.02538 12.9999C7.02372 11.8144 7.25662 10.6402 7.71067 9.5451C8.16472 8.44997 8.83094 7.45548 9.67098 6.61894C10.511 5.78239 11.5083 5.1203 12.6053 4.67081C13.7023 4.22131 14.8774 3.9933 16.0629 3.9999C21.0129 4.0374 24.9754 8.1499 24.9754 13.1124V13.9999C24.9754 18.4749 25.9129 21.0749 26.7379 22.4999C26.8255 22.6517 26.8717 22.8238 26.8719 22.999C26.872 23.1743 26.8261 23.3465 26.7388 23.4984C26.6514 23.6503 26.5257 23.7766 26.3742 23.8646C26.2226 23.9526 26.0506 23.9993 25.8754 23.9999H6.12538C5.95015 23.9993 5.77815 23.9526 5.62662 23.8646C5.47509 23.7766 5.34935 23.6503 5.262 23.4984C5.17465 23.3465 5.12875 23.1743 5.12891 22.999C5.12906 22.8238 5.17526 22.6517 5.26288 22.4999C6.08788 21.0749 7.02538 18.4749 7.02538 13.9999V12.9999Z" stroke="white" stroke-width="1.5" stroke-linecap="round" stroke-linejoin="round"/>
<path id="Vector_2" d="M12 24V25C12 26.0609 12.4214 27.0783 13.1716 27.8284C13.9217 28.5786 14.9391 29 16 29C17.0609 29 18.0783 28.5786 18.8284 27.8284C19.5786 27.0783 20 26.0609 20 25V24" stroke="white" stroke-width="1.5" stroke-linecap="round" stroke-linejoin="round"/>
</g>
</svg>
