<svg width="500" height="500" viewBox="0 0 500 500" fill="none" xmlns="http://www.w3.org/2000/svg">
<path d="M500 382.4H0V382.65H500V382.4Z" fill="#FDEEEE"/>
<path d="M449.9 398.49H428.22V398.74H449.9V398.49Z" fill="#FDEEEE"/>
<path d="M344.67 393.31H310.56V393.56H344.67V393.31Z" fill="#FDEEEE"/>
<path d="M441.12 389.21H396.59V389.46H441.12V389.21Z" fill="#FDEEEE"/>
<path d="M173.02 394.25H161.88V394.5H173.02V394.25Z" fill="#FDEEEE"/>
<path d="M152.97 394.25H114.58V394.5H152.97V394.25Z" fill="#FDEEEE"/>
<path d="M94.0101 390.03H66.3101V390.28H94.0101V390.03Z" fill="#FDEEEE"/>
<path d="M237 337.8H43.91C42.3973 337.797 40.9475 337.195 39.8788 336.124C38.8102 335.053 38.21 333.603 38.21 332.09V60.66C38.2231 59.156 38.8292 57.718 39.8964 56.6582C40.9637 55.5985 42.4059 55.0026 43.91 55H237C238.514 55 239.967 55.6016 241.038 56.6724C242.108 57.7433 242.71 59.1956 242.71 60.71V332.09C242.71 333.604 242.108 335.057 241.038 336.128C239.967 337.198 238.514 337.8 237 337.8ZM43.91 55.2C42.4636 55.2026 41.0774 55.7791 40.0556 56.8027C39.0338 57.8264 38.46 59.2136 38.46 60.66V332.09C38.46 333.536 39.0338 334.924 40.0556 335.947C41.0774 336.971 42.4636 337.547 43.91 337.55H237C238.447 337.547 239.834 336.971 240.858 335.948C241.881 334.924 242.457 333.537 242.46 332.09V60.66C242.457 59.2127 241.881 57.8255 240.858 56.8021C239.834 55.7787 238.447 55.2026 237 55.2H43.91Z" fill="#FDEEEE"/>
<path d="M453.31 337.8H260.21C258.696 337.797 257.246 337.195 256.175 336.125C255.105 335.054 254.503 333.604 254.5 332.09V60.66C254.516 59.1551 255.124 57.7171 256.193 56.6576C257.262 55.5981 258.705 55.0025 260.21 55H453.31C454.812 55.0052 456.252 55.6022 457.317 56.6617C458.382 57.7212 458.987 59.1578 459 60.66V332.09C459 333.601 458.401 335.05 457.335 336.121C456.268 337.191 454.821 337.795 453.31 337.8ZM260.21 55.2C258.763 55.2026 257.375 55.7787 256.352 56.8021C255.329 57.8255 254.753 59.2127 254.75 60.66V332.09C254.753 333.537 255.329 334.924 256.352 335.948C257.375 336.971 258.763 337.547 260.21 337.55H453.31C454.757 337.547 456.145 336.971 457.168 335.948C458.191 334.924 458.767 333.537 458.77 332.09V60.66C458.767 59.2127 458.191 57.8255 457.168 56.8021C456.145 55.7787 454.757 55.2026 453.31 55.2H260.21Z" fill="#FDEEEE"/>
<path d="M216.07 200.88L216.52 187.74L208.46 185.1C208.114 180.647 207.391 176.231 206.3 171.9L213.14 166.9L208.5 154.56L200.04 155.24C198.034 151.264 195.692 147.467 193.04 143.89L197.42 136.58L188.42 126.97L180.86 130.84C177.461 127.934 173.828 125.312 170 123L171.22 114.6L159.22 109.16L153.72 115.6C149.477 114.243 145.129 113.239 140.72 112.6L138.72 104.37L125.54 103.92L122.94 111.99C118.491 112.34 114.08 113.059 109.75 114.14L104.67 107.34L92.3301 111.95L93.0101 120.41C89.0363 122.446 85.2398 124.811 81.6601 127.48L74.3001 123L64.6501 132L68.52 139.6C65.6134 142.982 63.0038 146.609 60.7201 150.44L52.3301 149.18L46.85 161.18L53.3301 166.67C51.9631 170.91 50.9595 175.259 50.3301 179.67L42 181.76L41.55 194.9L49.6501 197.54C49.9851 201.99 50.7044 206.403 51.8 210.73L44.96 215.73L49.6101 228.08L58.07 227.4C60.0708 231.379 62.4129 235.176 65.07 238.75L60.68 246.06L69.68 255.67L77.24 251.8C80.6307 254.705 84.2564 257.324 88.0801 259.63L86.82 268.02L98.82 273.47L104.35 267.03C108.593 268.399 112.941 269.42 117.35 270.08L119.35 278.31L132.53 278.76L135.13 270.69C139.582 270.336 143.996 269.617 148.33 268.54L153.33 275.34L165.67 270.73L165.03 262.27C168.996 260.221 172.792 257.856 176.38 255.2L183.65 259.58L193.3 250.58L189.43 242.98C192.338 239.598 194.947 235.971 197.23 232.14L205.62 233.4L211.1 221.4L204.62 215.9C206.01 211.663 207.03 207.313 207.67 202.9L216.07 200.88ZM127.28 243.45C116.968 243.102 106.991 239.703 98.6108 233.683C90.2308 227.664 83.8243 219.294 80.2017 209.633C76.5791 199.972 75.9032 189.453 78.2595 179.408C80.6157 169.363 85.8984 160.242 93.4391 153.199C100.98 146.157 110.44 141.509 120.622 139.844C130.805 138.178 141.253 139.57 150.644 143.844C160.036 148.117 167.949 155.08 173.382 163.851C178.816 172.622 181.526 182.808 181.17 193.12C180.695 206.939 174.752 220.005 164.646 229.443C154.54 238.881 141.1 243.919 127.28 243.45Z" fill="#FDEEEE"/>
<path d="M441 157.42L444.31 154.33L443 151.72C443.999 150.551 444.899 149.3 445.69 147.98L448.59 148.41L450.46 144.27L448.24 142.38C448.718 140.916 449.069 139.414 449.29 137.89L452.14 137.18L452.28 132.64L449.5 131.74C449.378 130.203 449.13 128.678 448.76 127.18L451.11 125.43L449.51 121.18L446.6 121.41C445.898 120.04 445.085 118.728 444.17 117.49L445.68 114.99L442.57 111.67L439.97 113C438.799 112.003 437.548 111.104 436.23 110.31L436.65 107.41L432.52 105.52L430.62 107.75C429.153 107.294 427.652 106.959 426.13 106.75L425.42 103.91L420.88 103.74L419.97 106.54C418.438 106.657 416.919 106.905 415.43 107.28L413.69 104.93L409.43 106.52L409.67 109.44C408.295 110.135 406.984 110.948 405.75 111.87L403.23 110.36L399.91 113.45L401.2 116C400.193 117.166 399.29 118.418 398.5 119.74L395.61 119.31L393.73 123.45L395.96 125.35C395.498 126.812 395.163 128.311 394.96 129.83L392.1 130.54L391.96 135.08L394.75 135.98C394.864 137.518 395.108 139.044 395.48 140.54L393.12 142.28L394.72 146.53L397.64 146.31C398.342 147.681 399.154 148.992 400.07 150.23L398.56 152.73L401.67 156.05L404.27 154.72C405.439 155.72 406.69 156.62 408.01 157.41L407.58 160.3L411.72 162.19L413.62 159.97C415.088 160.422 416.589 160.757 418.11 160.97L418.82 163.81L423.36 163.98L424.27 161.18C425.802 161.064 427.321 160.816 428.81 160.44L430.55 162.79L434.81 161.2L434.58 158.28C435.951 157.584 437.259 156.771 438.49 155.85L441 157.42ZM417.38 138.29C416.507 137.355 415.931 136.181 415.725 134.918C415.518 133.654 415.692 132.358 416.222 131.194C416.753 130.029 417.617 129.048 418.705 128.374C419.794 127.701 421.057 127.365 422.337 127.41C423.616 127.455 424.853 127.878 425.891 128.626C426.93 129.374 427.723 130.413 428.171 131.612C428.619 132.811 428.701 134.116 428.407 135.362C428.113 136.607 427.457 137.738 426.52 138.61C425.898 139.196 425.167 139.653 424.367 139.955C423.568 140.256 422.717 140.396 421.863 140.366C421.009 140.336 420.17 140.138 419.394 139.781C418.617 139.425 417.919 138.918 417.34 138.29H417.38Z" fill="#FDEEEE"/>
<path d="M320 292.34L309.66 285.19C308.646 281.467 307.252 277.858 305.5 274.42L308.15 264.02L293.15 247.96L282.59 249.89C279.277 247.905 275.768 246.267 272.12 245L265.7 234.19L243.7 233.44L236.56 243.78C232.841 244.793 229.236 246.183 225.8 247.93L215.4 245.28L199.34 260.28L201.27 270.82C199.287 274.14 197.652 277.655 196.39 281.31L185.58 287.73L184.83 309.73L195.18 316.87C196.177 320.613 197.568 324.24 199.33 327.69L196.65 338L211.65 354.06L222.14 352.14C225.478 354.127 229.009 355.769 232.68 357.04L239.09 367.83L261.09 368.59L268.22 358.25C271.972 357.237 275.611 355.843 279.08 354.09L289.42 356.73L305.49 341.73L303.56 331.19C305.549 327.87 307.185 324.351 308.44 320.69L319.25 314.27L320 292.34ZM251.55 325.73C246.666 325.563 241.941 323.952 237.973 321.1C234.005 318.248 230.971 314.283 229.256 309.707C227.541 305.131 227.221 300.149 228.337 295.392C229.453 290.634 231.954 286.314 235.525 282.978C239.096 279.642 243.576 277.44 248.399 276.649C253.221 275.859 258.17 276.517 262.619 278.539C267.068 280.561 270.817 283.857 273.393 288.01C275.969 292.163 277.255 296.986 277.09 301.87C276.86 308.42 274.041 314.612 269.251 319.085C264.46 323.559 258.091 325.949 251.54 325.73H251.55Z" fill="#FDEEEE"/>
<path d="M343.55 230H343.48L326.16 229.41C325.809 229.404 325.466 229.309 325.162 229.134C324.857 228.959 324.602 228.71 324.42 228.41L319.75 220.56C317.233 219.639 314.798 218.509 312.47 217.18L305 218.47C304.652 218.534 304.294 218.508 303.958 218.397C303.622 218.285 303.32 218.09 303.08 217.83L291.25 205.17C291.002 204.908 290.825 204.586 290.738 204.236C290.65 203.885 290.654 203.518 290.75 203.17L292.64 195.76C291.469 193.359 290.512 190.859 289.78 188.29L282.25 183.09C281.958 182.889 281.722 182.618 281.562 182.302C281.403 181.985 281.327 181.634 281.34 181.28L281.93 163.96C281.942 163.61 282.039 163.269 282.213 162.965C282.388 162.662 282.634 162.406 282.93 162.22L290.8 157.55C291.708 155.039 292.835 152.613 294.17 150.3L292.79 142.77C292.726 142.42 292.75 142.06 292.862 141.723C292.974 141.385 293.169 141.082 293.43 140.84L306.09 129.02C306.352 128.771 306.673 128.593 307.023 128.504C307.374 128.414 307.741 128.417 308.09 128.51L315.53 130.41C317.925 129.238 320.418 128.278 322.98 127.54L328.18 120.01C328.373 119.711 328.643 119.469 328.961 119.309C329.28 119.149 329.635 119.077 329.99 119.1L347.3 119.7C347.652 119.707 347.997 119.803 348.302 119.977C348.608 120.152 348.865 120.401 349.05 120.7L353.72 128.56C356.219 129.477 358.635 130.608 360.94 131.94L368.5 130.55C368.848 130.485 369.207 130.51 369.543 130.622C369.879 130.734 370.18 130.929 370.42 131.19L382.25 143.85C382.497 144.113 382.672 144.435 382.76 144.785C382.847 145.135 382.844 145.502 382.75 145.85L380.85 153.28C382.022 155.676 382.985 158.169 383.73 160.73L391.25 165.93C391.542 166.13 391.779 166.402 391.938 166.718C392.097 167.034 392.173 167.386 392.16 167.74L391.57 185.05C391.558 185.401 391.461 185.744 391.287 186.049C391.112 186.354 390.867 186.612 390.57 186.8L382.7 191.47C381.786 193.975 380.659 196.398 379.33 198.71L380.71 206.25C380.775 206.598 380.75 206.957 380.638 207.293C380.526 207.628 380.331 207.93 380.07 208.17L367.33 220C367.068 220.248 366.746 220.425 366.396 220.512C366.045 220.6 365.678 220.596 365.33 220.5L357.93 218.61C355.519 219.776 353.013 220.736 350.44 221.48L345.29 229C345.105 229.297 344.849 229.543 344.545 229.718C344.242 229.892 343.9 229.989 343.55 230ZM327.46 225.23L342.46 225.74L347.46 218.55C347.737 218.13 348.162 217.83 348.65 217.71C351.464 216.94 354.194 215.892 356.8 214.58C357.254 214.361 357.771 214.308 358.26 214.43L365.26 216.22L376.26 205.97L375 198.74C374.903 198.235 374.995 197.711 375.26 197.27C376.745 194.794 377.969 192.17 378.91 189.44C379.069 188.945 379.403 188.525 379.85 188.26L387.38 183.8L387.89 168.8L380.69 163.8C380.311 163.541 380.026 163.165 379.88 162.73C379.88 162.68 379.88 162.62 379.88 162.56C379.11 159.796 378.064 157.116 376.76 154.56C376.529 154.102 376.472 153.576 376.6 153.08L378.4 146L368.15 135L360.96 136.32C360.458 136.411 359.94 136.319 359.5 136.06C357.019 134.572 354.392 133.342 351.66 132.39C351.503 132.34 351.352 132.273 351.21 132.19C350.922 132.01 350.682 131.763 350.51 131.47L346 123.92L331 123.4L326 130.61C325.702 131.033 325.262 131.334 324.76 131.46C321.975 132.221 319.275 133.263 316.7 134.57C316.246 134.802 315.723 134.858 315.23 134.73L308.15 132.93L297.15 143.18L298.47 150.35C298.548 150.802 298.482 151.268 298.28 151.68L298.18 151.85C296.693 154.336 295.47 156.97 294.53 159.71C294.365 160.18 294.039 160.576 293.61 160.83L286.08 165.3L285.57 180.3L292.78 185.3C293.191 185.581 293.489 185.999 293.62 186.48C294.37 189.288 295.412 192.01 296.73 194.6C296.801 194.747 296.858 194.902 296.9 195.06C296.975 195.389 296.975 195.731 296.9 196.06L295.1 203.06L305.35 214.06L312.49 212.75C312.989 212.659 313.504 212.751 313.94 213.01C316.44 214.495 319.083 215.725 321.83 216.68C322.326 216.827 322.745 217.16 323 217.61L327.46 225.23ZM336.73 206.26C336.36 206.26 335.99 206.26 335.62 206.26C327.307 206.114 319.389 202.69 313.588 196.734C307.787 190.778 304.573 182.771 304.646 174.457C304.719 166.143 308.073 158.195 313.978 152.342C319.883 146.489 327.861 143.205 336.175 143.205C344.489 143.205 352.467 146.489 358.372 152.342C364.277 158.195 367.631 166.143 367.704 174.457C367.777 182.771 364.563 190.778 358.763 196.734C352.962 202.69 345.043 206.114 336.73 206.26ZM336.73 147.17C329.466 147.295 322.545 150.285 317.474 155.489C312.403 160.692 309.594 167.688 309.656 174.953C309.719 182.219 312.649 189.165 317.808 194.28C322.968 199.396 329.94 202.266 337.205 202.266C344.471 202.266 351.442 199.396 356.602 194.28C361.761 189.165 364.691 182.219 364.754 174.953C364.817 167.688 362.007 160.692 356.936 155.489C351.865 150.285 344.945 147.295 337.68 147.17H336.73Z" fill="#FDEEEE"/>
<path d="M383.44 105.32L376.26 103.4L374.34 96.2199L377.15 93.4199L380.11 99.5499L386.25 102.52L383.44 105.32Z" fill="#FDEEEE"/>
<path d="M383.88 100.52C384.19 100.21 384.437 99.8409 384.605 99.4351C384.773 99.0293 384.86 98.5944 384.86 98.1552C384.86 97.716 384.773 97.281 384.605 96.8752C384.437 96.4695 384.19 96.1008 383.88 95.7902C383.569 95.4796 383.201 95.2332 382.795 95.0652C382.389 94.8971 381.954 94.8106 381.515 94.8106C381.076 94.8106 380.641 94.8971 380.235 95.0652C379.829 95.2332 379.46 95.4796 379.15 95.7902L382.72 90.4302L387.5 92.8502L388.55 97.8502L383.88 100.52Z" fill="#FDEEEE"/>
<path d="M376.58 94.0002L381.84 88.7402L389 90.6502L390.93 97.8202L385.67 103.08L378.5 101.15L376.58 94.0002ZM386.13 98.3002C386.598 97.8316 386.917 97.2347 387.046 96.5849C387.175 95.9352 387.108 95.2618 386.855 94.6499C386.601 94.0379 386.172 93.5149 385.621 93.147C385.07 92.779 384.423 92.5826 383.76 92.5826C383.098 92.5826 382.45 92.779 381.899 93.147C381.348 93.5149 380.919 94.0379 380.665 94.6499C380.412 95.2618 380.345 95.9352 380.474 96.5849C380.603 97.2347 380.922 97.8316 381.39 98.3002C382.024 98.9217 382.877 99.2682 383.764 99.2644C384.652 99.2607 385.502 98.907 386.13 98.2802V98.3002Z" fill="#FCDEDE"/>
<path d="M90.22 296.71L94.07 295.67L95.1 291.82L93.6 290.32L92.01 293.61L88.71 295.2L90.22 296.71Z" fill="#FDEEEE"/>
<path d="M89.9999 294.13C89.6991 293.787 89.5401 293.341 89.5552 292.885C89.5703 292.428 89.7584 291.995 90.0814 291.672C90.4044 291.349 90.8381 291.161 91.2946 291.145C91.7511 291.13 92.1963 291.289 92.5399 291.59L90.6299 288.72L87.9999 290L87.4399 292.7L89.9999 294.13Z" fill="#FDEEEE"/>
<path d="M93.9 290.62L91.08 287.8L87.23 288.8L86.23 292.65L89 295.5L92.85 294.5L93.9 290.62ZM88.78 292.93C88.5946 292.767 88.4445 292.569 88.339 292.346C88.2335 292.123 88.1749 291.881 88.1667 291.635C88.1585 291.389 88.201 291.144 88.2915 290.914C88.3821 290.685 88.5187 290.477 88.6929 290.303C88.8672 290.129 89.0753 289.992 89.3045 289.901C89.5337 289.811 89.779 289.768 90.0253 289.777C90.2716 289.785 90.5136 289.843 90.7363 289.949C90.959 290.054 91.1577 290.204 91.32 290.39C91.6209 290.733 91.7799 291.179 91.7647 291.635C91.7496 292.092 91.5615 292.525 91.2385 292.848C90.9155 293.171 90.4818 293.359 90.0253 293.375C89.5688 293.39 89.1236 293.231 88.78 292.93Z" fill="#FCDEDE"/>
<path d="M76.36 85.6598L79.56 88.8598C79.9602 89.2531 80.4989 89.4735 81.06 89.4735C81.6212 89.4735 82.1598 89.2531 82.56 88.8598C82.951 88.4583 83.1698 87.9201 83.1698 87.3598C83.1698 86.7994 82.951 86.2612 82.56 85.8598L79.37 82.6698C78.9686 82.2788 78.4304 82.0601 77.87 82.0601C77.3097 82.0601 76.7715 82.2788 76.37 82.6698C75.9784 83.0682 75.7581 83.604 75.7562 84.1627C75.7544 84.7214 75.9711 85.2587 76.36 85.6598Z" fill="#FCDEDE"/>
<path d="M74.11 77.71C74.945 77.4778 75.8296 77.4945 76.6553 77.7581C77.481 78.0216 78.2117 78.5206 78.7578 79.1936C79.3039 79.8666 79.6415 80.6845 79.7293 81.5467C79.817 82.409 79.6511 83.2781 79.2518 84.0474C78.8526 84.8166 78.2373 85.4526 77.4817 85.8771C76.7261 86.3016 75.8629 86.4962 74.9983 86.437C74.1336 86.3778 73.305 86.0674 72.6142 85.5439C71.9235 85.0204 71.4007 84.3065 71.11 83.49C70.9254 82.9136 70.8567 82.3064 70.9077 81.7032C70.9588 81.1001 71.1286 80.5131 71.4074 79.9759C71.6862 79.4387 72.0686 78.9619 72.5324 78.573C72.9962 78.1842 73.5324 77.8909 74.11 77.71Z" fill="#FDEEEE"/>
<path d="M70.6298 82.9548L71.093 84.2441L80.5983 80.8295L80.1351 79.5402L70.6298 82.9548Z" fill="#FCDEDE"/>
<path d="M250 427.56C357.082 427.56 443.89 422.492 443.89 416.24C443.89 409.988 357.082 404.92 250 404.92C142.917 404.92 56.11 409.988 56.11 416.24C56.11 422.492 142.917 427.56 250 427.56Z" fill="#FCDEDE"/>
<path d="M222.45 304.84C223.84 282.44 221.29 241.71 263.4 247.11C308.53 252.88 295.62 305.66 295.62 305.66L222.45 304.84Z" fill="#8F3535"/>
<path d="M251.51 291.38C261.661 291.38 269.89 283.151 269.89 273C269.89 262.849 261.661 254.62 251.51 254.62C241.359 254.62 233.13 262.849 233.13 273C233.13 283.151 241.359 291.38 251.51 291.38Z" fill="white"/>
<path d="M253.93 254.65C245.22 253.17 235.93 259.58 235 266.08L269.51 269.26C268.29 261.85 260.83 255.83 253.93 254.65Z" fill="#8F3535"/>
<path d="M265.58 272.54C265.33 277.35 262.71 281.12 259.73 280.96C256.75 280.8 254.53 276.79 254.73 271.96C254.93 267.13 257.6 263.38 260.58 263.54C263.56 263.7 265.82 267.74 265.58 272.54Z" fill="#8F3535"/>
<path d="M251.51 292.38C247.677 292.38 243.93 291.244 240.743 289.114C237.556 286.985 235.072 283.958 233.605 280.417C232.138 276.875 231.755 272.979 232.502 269.219C233.25 265.46 235.096 262.007 237.806 259.296C240.517 256.586 243.97 254.74 247.729 253.993C251.489 253.245 255.385 253.629 258.926 255.095C262.468 256.562 265.494 259.046 267.624 262.233C269.753 265.42 270.89 269.167 270.89 273C270.885 278.138 268.841 283.065 265.208 286.698C261.575 290.331 256.648 292.375 251.51 292.38ZM251.51 255.63C248.072 255.63 244.712 256.65 241.853 258.56C238.995 260.47 236.767 263.185 235.452 266.361C234.137 269.538 233.793 273.033 234.465 276.404C235.136 279.776 236.792 282.873 239.224 285.303C241.656 287.733 244.753 289.388 248.125 290.057C251.498 290.727 254.992 290.381 258.168 289.064C261.344 287.747 264.057 285.518 265.966 282.659C267.874 279.799 268.892 276.438 268.89 273C268.885 268.393 267.052 263.977 263.793 260.72C260.535 257.463 256.117 255.633 251.51 255.63Z" fill="#EE5858"/>
<path opacity="0.3" d="M290.49 304.28H290.37C290.306 304.266 290.245 304.239 290.191 304.201C290.138 304.163 290.092 304.115 290.058 304.059C290.023 304.003 290 303.94 289.99 303.875C289.98 303.81 289.984 303.744 290 303.68C290 303.55 293.22 289.99 289.91 276.28C289.878 276.148 289.9 276.008 289.972 275.891C290.043 275.775 290.157 275.692 290.29 275.66C290.423 275.628 290.562 275.651 290.679 275.722C290.795 275.793 290.878 275.908 290.91 276.04C294.28 290.04 291.03 303.78 291 303.91C290.97 304.021 290.903 304.118 290.811 304.186C290.718 304.253 290.604 304.286 290.49 304.28Z" fill="white"/>
<path opacity="0.3" d="M287.7 268.76C287.604 268.759 287.51 268.731 287.429 268.68C287.348 268.629 287.283 268.556 287.24 268.47C285.997 265.723 284.404 263.148 282.5 260.81C282.417 260.708 282.378 260.577 282.391 260.446C282.404 260.315 282.469 260.194 282.57 260.11C282.621 260.067 282.68 260.035 282.743 260.016C282.807 259.996 282.874 259.99 282.94 259.996C283.006 260.003 283.07 260.022 283.128 260.054C283.187 260.085 283.238 260.128 283.28 260.18C285.231 262.586 286.868 265.23 288.15 268.05C288.179 268.109 288.195 268.173 288.198 268.238C288.202 268.304 288.192 268.369 288.169 268.431C288.147 268.492 288.113 268.549 288.068 268.597C288.023 268.645 287.97 268.683 287.91 268.71C287.844 268.741 287.773 268.758 287.7 268.76Z" fill="white"/>
<path d="M128.73 409.92H128.36C127.034 409.883 125.777 409.32 124.865 408.357C123.954 407.393 123.463 406.106 123.5 404.78C123.537 403.454 124.1 402.197 125.063 401.285C126.027 400.374 127.314 399.883 128.64 399.92H128.73C131.62 399.92 138.57 396.41 153.11 373.49C153.496 372.881 154.009 372.363 154.614 371.971C155.219 371.579 155.901 371.323 156.615 371.219C157.328 371.116 158.055 371.168 158.746 371.372C159.438 371.575 160.077 371.926 160.62 372.4C172.039 382.216 184.492 390.76 197.76 397.88C198.374 398.159 198.925 398.56 199.38 399.058C199.835 399.556 200.185 400.14 200.408 400.777C200.632 401.414 200.724 402.089 200.679 402.762C200.634 403.435 200.454 404.092 200.149 404.693C199.844 405.295 199.42 405.829 198.903 406.262C198.387 406.696 197.787 407.02 197.142 407.216C196.496 407.412 195.818 407.475 195.147 407.402C194.477 407.329 193.828 407.121 193.24 406.79C180.909 400.237 169.252 392.487 158.44 383.65C146.25 402 137.21 409.92 128.73 409.92Z" fill="#8F3535"/>
<path d="M159.67 371.5H159.24C158.454 371.386 157.746 370.965 157.269 370.33C156.793 369.694 156.589 368.896 156.7 368.11C157.41 363.11 156.53 344.48 150.22 329.98C149.94 329.339 149.893 328.621 150.086 327.949C150.28 327.277 150.702 326.693 151.28 326.3C164.98 316.97 194.16 315.85 195.4 315.81C195.794 315.797 196.187 315.861 196.556 316C196.925 316.138 197.263 316.348 197.551 316.618C197.839 316.887 198.071 317.21 198.233 317.569C198.396 317.928 198.487 318.316 198.5 318.71C198.513 319.104 198.449 319.496 198.31 319.865C198.171 320.234 197.961 320.573 197.692 320.86C197.423 321.148 197.099 321.38 196.74 321.543C196.382 321.706 195.994 321.797 195.6 321.81C195.33 321.81 169.82 322.81 156.72 330.01C162.3 344.45 163.57 362.44 162.64 368.95C162.532 369.66 162.173 370.308 161.628 370.776C161.083 371.244 160.388 371.501 159.67 371.5Z" fill="#8F3535"/>
<path d="M164.71 367.62C162.71 362.91 153.71 363.44 148.44 367.48C145.62 369.63 141.8 376.12 141.44 378.48C141.32 379.041 141.338 379.622 141.492 380.174C141.647 380.727 141.933 381.233 142.327 381.65C142.72 382.068 143.209 382.383 143.751 382.569C144.294 382.755 144.873 382.807 145.44 382.72C148.89 382.42 153.62 377.41 153.62 377.41C150.47 380.5 154.54 382.68 160.62 378.21C163.94 375.72 166.94 372.89 164.71 367.62Z" fill="#EE5858"/>
<path d="M336.71 306.16C336.664 306.17 336.616 306.17 336.57 306.16C336.506 306.143 336.447 306.113 336.395 306.072C336.343 306.031 336.3 305.98 336.268 305.923C336.236 305.865 336.216 305.801 336.21 305.735C336.203 305.669 336.21 305.603 336.23 305.54C337.56 300.9 339.01 298.07 340.92 296.54C340.621 295.465 340.677 294.321 341.08 293.28C341.546 292.065 342.369 291.019 343.44 290.28C343.149 289.965 342.942 289.582 342.839 289.166C342.736 288.75 342.74 288.314 342.85 287.9C343.212 286.647 343.961 285.541 344.99 284.74C344.619 284.325 344.416 283.787 344.42 283.23C344.42 280.23 349.93 275.71 356.18 274.85C356.313 274.832 356.447 274.866 356.554 274.947C356.661 275.028 356.731 275.147 356.75 275.28C356.769 275.413 356.734 275.547 356.653 275.654C356.572 275.761 356.453 275.832 356.32 275.85C350.38 276.66 345.4 280.96 345.42 283.23C345.418 283.569 345.547 283.895 345.78 284.14C347.125 283.228 348.639 282.593 350.232 282.272C351.825 281.951 353.467 281.95 355.06 282.27C358.13 282.86 359.38 283.51 359.24 284.44C358.96 286.19 352.43 286.56 348.05 286.04C347.265 285.969 346.502 285.748 345.8 285.39C344.857 286.061 344.156 287.019 343.8 288.12C343.714 288.412 343.715 288.722 343.802 289.013C343.889 289.304 344.058 289.563 344.29 289.76C346.15 288.76 348.76 288.4 352.21 289.16C356.74 290.16 356.91 290.71 357.02 291.04C357.055 291.157 357.058 291.281 357.028 291.399C356.998 291.517 356.937 291.624 356.85 291.71C355.9 292.71 348.95 292.24 345.46 291.38C345.039 291.284 344.632 291.133 344.25 290.93C343.217 291.558 342.422 292.511 341.99 293.64C341.701 294.371 341.622 295.167 341.76 295.94C341.938 295.834 342.122 295.737 342.31 295.65C344.38 294.65 346.88 294.83 349.97 296.15C351.97 297.02 352.97 297.8 353.07 298.59C353.074 298.793 353.024 298.993 352.923 299.169C352.823 299.345 352.677 299.491 352.5 299.59C350.97 300.59 345.63 300.45 342.85 298.97C342.211 298.623 341.678 298.108 341.31 297.48C339.68 298.98 338.36 301.65 337.16 305.84C337.124 305.931 337.062 306.01 336.982 306.066C336.902 306.123 336.808 306.156 336.71 306.16ZM342.13 296.83C342.408 297.347 342.833 297.772 343.35 298.05C345.61 299.25 350.05 299.52 351.71 298.85C352.05 298.71 352.1 298.6 352.1 298.6C352.1 298.6 352.05 298.04 349.6 296.99C346.8 295.79 344.6 295.62 342.77 296.47C342.549 296.576 342.336 296.697 342.13 296.83ZM345.47 290.26L345.72 290.33C348.977 291.081 352.328 291.333 355.66 291.08C354.478 290.642 353.26 290.307 352.02 290.08C349.866 289.497 347.589 289.559 345.47 290.26ZM346.73 284.64C347.192 284.806 347.672 284.913 348.16 284.96C353.16 285.55 357.55 284.86 358.16 284.23C357.99 284.08 357.32 283.65 354.84 283.18C352.049 282.624 349.151 283.145 346.73 284.64Z" fill="#8F3535"/>
<path d="M206.53 408.25C207.19 408.04 206.97 407.4 206.23 407.4H192.69C166.91 404.67 148.9 408.33 160.25 409.19C171.6 410.05 159.45 409.87 151.16 413.01C142.87 416.15 212.81 416.94 219.16 413.01C225 409.39 197.39 411.18 206.53 408.25Z" fill="#8F3535"/>
<path d="M303.47 412.24L185.67 408.33L180.78 294.11L319.89 297.22L303.47 412.24Z" fill="#EE5858"/>
<path d="M222.45 410.05C222.324 410.051 222.203 410.003 222.11 409.918C222.017 409.833 221.96 409.716 221.95 409.59L212.51 294.87C212.502 294.738 212.545 294.608 212.631 294.507C212.717 294.406 212.838 294.343 212.97 294.33C213.102 294.324 213.23 294.368 213.331 294.454C213.431 294.539 213.495 294.659 213.51 294.79L223 409.51C223.006 409.576 222.998 409.642 222.978 409.705C222.958 409.767 222.925 409.826 222.882 409.876C222.84 409.926 222.787 409.967 222.729 409.997C222.67 410.027 222.606 410.045 222.54 410.05H222.45Z" fill="#8F3535"/>
<path d="M303.47 412.24L335.13 407.42L345.1 301.21L319.89 297.22L303.47 412.24Z" fill="#EE5858"/>
<path opacity="0.2" d="M303.47 412.24L335.13 407.42L345.1 301.21L319.89 297.22L303.47 412.24Z" fill="#191C1F"/>
<path d="M195.73 386.32L192.83 318.45C192.758 316.773 193.032 315.1 193.633 313.533C194.234 311.966 195.15 310.539 196.324 309.34C197.498 308.141 198.906 307.196 200.46 306.563C202.015 305.93 203.682 305.623 205.36 305.66L293.42 307.66C295.154 307.699 296.86 308.105 298.425 308.852C299.991 309.599 301.38 310.669 302.502 311.992C303.624 313.315 304.452 314.86 304.933 316.527C305.413 318.193 305.535 319.943 305.29 321.66L295.53 390C295.108 392.993 293.595 395.725 291.283 397.672C288.971 399.619 286.021 400.643 283 400.55L207.61 398.05C204.515 397.954 201.571 396.692 199.367 394.517C197.164 392.341 195.865 389.413 195.73 386.32Z" fill="#8F3535"/>
<path d="M205.25 326.49L218.87 326.92L218.76 330.43L210.23 330.16L210.15 332.78L218.06 333.03L217.95 336.39L210.04 336.13L209.94 339.38L218.71 339.66L218.59 343.38L204.72 342.94L205.25 326.49Z" fill="white"/>
<path d="M221.4 343.47L221.92 327.02L230.4 327.29C231.616 327.284 232.826 327.459 233.99 327.81C234.815 328.086 235.521 328.637 235.99 329.37C236.338 329.904 236.571 330.504 236.677 331.132C236.783 331.76 236.758 332.404 236.604 333.022C236.45 333.64 236.171 334.22 235.783 334.726C235.395 335.231 234.907 335.651 234.35 335.96C233.782 336.253 233.171 336.455 232.54 336.56C233.005 336.71 233.446 336.925 233.85 337.2C234.142 337.471 234.403 337.773 234.63 338.1C234.888 338.411 235.115 338.746 235.31 339.1L237.62 343.95L231.88 343.76L229.32 338.65C229.117 338.162 228.818 337.72 228.44 337.35C228.081 337.09 227.653 336.944 227.21 336.93H226.76L226.55 343.6L221.4 343.47ZM226.82 333.85L228.96 333.92C229.414 333.892 229.866 333.829 230.31 333.73C230.645 333.679 230.948 333.504 231.16 333.24C231.376 332.973 231.499 332.643 231.51 332.3C231.529 332.071 231.497 331.841 231.415 331.627C231.334 331.412 231.206 331.219 231.04 331.06C230.482 330.699 229.823 330.528 229.16 330.57L226.92 330.5L226.82 333.85Z" fill="white"/>
<path d="M239.28 344L239.8 327.55L248.27 327.82C249.486 327.813 250.696 327.988 251.86 328.34C252.687 328.613 253.394 329.164 253.86 329.9C254.368 330.701 254.606 331.644 254.54 332.59C254.543 333.388 254.33 334.172 253.923 334.858C253.516 335.545 252.931 336.109 252.23 336.49C251.661 336.781 251.05 336.983 250.42 337.09C250.882 337.239 251.32 337.455 251.72 337.73C252.019 337.993 252.284 338.292 252.51 338.62C252.766 338.933 252.993 339.267 253.19 339.62L255.5 344.46L249.76 344.28L247.2 339.17C246.995 338.683 246.696 338.241 246.32 337.87C245.963 337.6 245.528 337.453 245.08 337.45H244.64L244.42 344.13L239.28 344ZM244.69 334.38L246.84 334.44C247.295 334.423 247.747 334.362 248.19 334.26C248.523 334.21 248.823 334.035 249.03 333.77C249.254 333.508 249.378 333.175 249.38 332.83C249.402 332.602 249.372 332.372 249.292 332.157C249.212 331.942 249.085 331.748 248.92 331.59C248.362 331.22 247.697 331.048 247.03 331.1L244.8 331.03L244.69 334.38Z" fill="white"/>
<path d="M256.32 336.36C256.243 335.212 256.421 334.061 256.841 332.99C257.262 331.919 257.914 330.955 258.752 330.166C259.589 329.377 260.591 328.784 261.685 328.428C262.779 328.073 263.939 327.964 265.08 328.11C266.232 328.072 267.379 328.265 268.455 328.679C269.53 329.093 270.511 329.719 271.34 330.52C272.08 331.371 272.638 332.365 272.982 333.439C273.326 334.514 273.448 335.647 273.34 336.77C273.348 338.403 272.964 340.015 272.22 341.47C271.546 342.66 270.538 343.626 269.32 344.25C267.885 344.936 266.297 345.239 264.71 345.13C263.128 345.143 261.563 344.801 260.13 344.13C258.91 343.468 257.915 342.459 257.27 341.23C256.514 339.724 256.185 338.039 256.32 336.36ZM261.4 336.54C261.25 337.8 261.536 339.074 262.21 340.15C262.525 340.502 262.908 340.787 263.336 340.987C263.764 341.188 264.228 341.301 264.7 341.318C265.172 341.336 265.643 341.259 266.084 341.091C266.526 340.922 266.929 340.667 267.27 340.34C268.011 339.217 268.363 337.882 268.27 336.54C268.404 335.334 268.11 334.12 267.44 333.11C267.137 332.76 266.762 332.48 266.341 332.289C265.92 332.097 265.463 331.999 265 332C264.533 331.966 264.065 332.039 263.63 332.212C263.196 332.385 262.806 332.654 262.49 333C261.733 334.02 261.348 335.27 261.4 336.54Z" fill="white"/>
<path d="M275.91 345.21L276.43 328.75L284.9 329.02C286.116 329.018 287.325 329.193 288.49 329.54C289.313 329.821 290.018 330.37 290.49 331.1C290.995 331.902 291.233 332.844 291.17 333.79C291.175 334.59 290.962 335.376 290.556 336.064C290.149 336.753 289.563 337.318 288.86 337.7C288.288 337.983 287.679 338.182 287.05 338.29C287.513 338.442 287.951 338.661 288.35 338.94C288.649 339.203 288.914 339.502 289.14 339.83C289.398 340.141 289.625 340.476 289.82 340.83L292.13 345.68L286.39 345.5L283.83 340.38C283.626 339.895 283.327 339.456 282.95 339.09C282.591 338.822 282.158 338.671 281.71 338.66H281.27L281.05 345.34L275.91 345.21ZM281.32 335.58L283.47 335.65C283.925 335.633 284.377 335.572 284.82 335.47C285.151 335.417 285.451 335.242 285.66 334.98C285.896 334.701 286.021 334.345 286.01 333.98C286.032 333.754 286.001 333.525 285.922 333.312C285.842 333.099 285.715 332.907 285.55 332.75C284.992 332.38 284.327 332.208 283.66 332.26L281.43 332.19L281.32 335.58Z" fill="white"/>
<path d="M284 373.16C283.812 373.163 283.626 373.127 283.454 373.053C283.281 372.978 283.127 372.868 283 372.73L274.44 363.36L265.2 371.8C264.944 372.034 264.605 372.158 264.259 372.143C263.912 372.128 263.585 371.976 263.35 371.72L254.79 362.35L245.55 370.79C245.294 371.024 244.955 371.148 244.609 371.133C244.262 371.118 243.935 370.966 243.7 370.71L235.13 361.34L225.9 369.78C225.765 369.902 225.607 369.995 225.435 370.053C225.263 370.112 225.081 370.134 224.9 370.12C224.553 370.099 224.227 369.945 223.99 369.69L215.43 360.33L206.2 368.76C205.942 368.995 205.602 369.119 205.254 369.104C204.905 369.089 204.577 368.936 204.34 368.68C204.223 368.553 204.133 368.404 204.074 368.242C204.015 368.08 203.989 367.908 203.998 367.736C204.006 367.564 204.049 367.395 204.123 367.239C204.197 367.084 204.302 366.945 204.43 366.83L214.63 357.5C214.888 357.265 215.228 357.141 215.577 357.156C215.925 357.171 216.254 357.323 216.49 357.58L225.05 366.95L234.28 358.51C234.542 358.28 234.882 358.158 235.23 358.17C235.578 358.188 235.905 358.343 236.14 358.6L244.7 367.97L253.94 359.53C254.066 359.412 254.214 359.321 254.376 359.262C254.538 359.202 254.71 359.175 254.882 359.183C255.054 359.19 255.223 359.232 255.379 359.305C255.535 359.378 255.675 359.482 255.79 359.61L264.35 368.98L273.59 360.54C273.846 360.305 274.185 360.182 274.532 360.197C274.879 360.212 275.205 360.364 275.44 360.62L285 371C285.171 371.191 285.282 371.427 285.321 371.681C285.36 371.934 285.324 372.193 285.218 372.426C285.112 372.659 284.94 372.857 284.724 372.994C284.508 373.131 284.256 373.203 284 373.2V373.16Z" fill="white"/>
<path d="M125.75 414.67L119.49 411.68L113.91 384.51L116.94 381.18L125.75 414.67Z" fill="#EE5858"/>
<path d="M125.75 414.67L134.06 409.81L126.94 387.43L116.94 381.18L125.75 414.67Z" fill="#EE5858"/>
<path opacity="0.2" d="M125.75 414.67L134.06 409.81L126.94 387.43L116.94 381.18L125.75 414.67Z" fill="#191C1F"/>
<path d="M262 419.61H261.31C259.984 419.574 258.726 419.013 257.814 418.05C256.902 417.087 256.409 415.801 256.445 414.475C256.481 413.149 257.042 411.891 258.005 410.979C258.968 410.067 260.254 409.574 261.58 409.61C269.28 409.86 285.58 405.13 294.9 396.09C295.463 395.538 296.148 395.127 296.9 394.89C312.69 390.15 318.56 399.72 318.8 400.13L310.2 405.22C310.23 405.284 310.267 405.344 310.31 405.4C310.22 405.27 307.98 402.4 300.86 404.16C289.17 414.82 271.23 419.61 262 419.61Z" fill="#8F3535"/>
<path d="M261.39 426.25L243.18 425.11L241.75 391.53L266.22 392.44L261.39 426.25Z" fill="#EE5858"/>
<path d="M261.39 426.25L265.65 422.01L268.29 401.08L266.22 392.44L261.39 426.25Z" fill="#EE5858"/>
<path opacity="0.2" d="M261.39 426.25L265.65 422.01L268.29 401.08L266.22 392.44L261.39 426.25Z" fill="#191C1F"/>
<path d="M366.91 413.54C366.256 413.539 365.621 413.325 365.1 412.93C354.7 405.03 340.65 391 335.26 377.47C335.179 377.274 335.122 377.069 335.09 376.86C332.46 361.22 329.95 328.31 329.84 326.92C329.81 326.526 329.859 326.13 329.982 325.755C330.106 325.379 330.302 325.032 330.56 324.733C331.08 324.128 331.819 323.755 332.615 323.695C333.411 323.635 334.197 323.894 334.802 324.415C335.407 324.935 335.78 325.674 335.84 326.47C335.84 326.8 338.41 360.03 340.97 375.54C346.35 388.7 360.97 402.21 368.75 408.15C369.251 408.53 369.62 409.058 369.804 409.659C369.989 410.26 369.98 410.904 369.779 411.5C369.578 412.095 369.195 412.613 368.683 412.979C368.172 413.345 367.559 413.541 366.93 413.54H366.91Z" fill="#8F3535"/>
<path d="M380.78 415.05C378.46 415.05 375.83 414 372.96 411.93C372.316 411.463 371.883 410.759 371.757 409.974C371.632 409.188 371.823 408.384 372.29 407.74C372.757 407.095 373.461 406.663 374.246 406.537C375.032 406.412 375.836 406.603 376.48 407.07C378.96 408.86 380.31 409.07 380.78 409.07C381.576 409.07 382.339 409.386 382.901 409.949C383.464 410.511 383.78 411.274 383.78 412.07C383.78 412.866 383.464 413.629 382.901 414.191C382.339 414.754 381.576 415.07 380.78 415.07V415.05Z" fill="#8F3535"/>
<path d="M373.8 411.84C377.01 402.31 390.17 404.19 394.71 405.61C398.588 406.736 402.308 408.349 405.78 410.41C408.23 412.01 408.27 414.7 405 416.23C401 418.11 390.84 416.44 390.84 416.44C396.08 418.73 390.84 422.44 381.63 418.8C378.64 417.62 372.67 415.34 373.8 411.84Z" fill="#EE5858"/>
<path d="M341.86 331C340.67 339.1 333.96 345.07 328.5 344.27C323.04 343.47 322.82 336.27 324.01 328.13C325.2 319.99 327.36 314.13 332.82 314.93C338.28 315.73 343.05 322.93 341.86 331Z" fill="#8F3535"/>
<path d="M209.88 298.7C210.333 298.7 210.7 298.333 210.7 297.88C210.7 297.427 210.333 297.06 209.88 297.06C209.427 297.06 209.06 297.427 209.06 297.88C209.06 298.333 209.427 298.7 209.88 298.7Z" fill="#8F3535"/>
<path d="M218.21 303.78C218.21 303.942 218.162 304.101 218.072 304.236C217.982 304.37 217.854 304.475 217.704 304.538C217.554 304.6 217.389 304.616 217.23 304.584C217.071 304.553 216.925 304.474 216.81 304.36C216.696 304.245 216.617 304.099 216.586 303.94C216.554 303.781 216.57 303.616 216.632 303.466C216.695 303.316 216.8 303.188 216.935 303.098C217.069 303.008 217.228 302.96 217.39 302.96C217.608 302.96 217.816 303.046 217.97 303.2C218.124 303.354 218.21 303.562 218.21 303.78Z" fill="#8F3535"/>
<path d="M219.13 400.68C219.13 400.842 219.082 401.001 218.992 401.135C218.902 401.27 218.774 401.375 218.624 401.437C218.474 401.5 218.309 401.516 218.15 401.484C217.991 401.452 217.845 401.374 217.73 401.26C217.615 401.145 217.537 400.999 217.506 400.84C217.474 400.681 217.49 400.516 217.552 400.366C217.614 400.216 217.72 400.088 217.854 399.998C217.989 399.908 218.148 399.86 218.31 399.86C218.527 399.86 218.736 399.946 218.89 400.1C219.044 400.254 219.13 400.462 219.13 400.68Z" fill="#8F3535"/>
<path d="M226.64 406.59C226.64 406.752 226.592 406.911 226.502 407.046C226.412 407.18 226.284 407.286 226.134 407.348C225.984 407.41 225.819 407.426 225.66 407.394C225.501 407.363 225.355 407.285 225.24 407.17C225.125 407.055 225.047 406.909 225.016 406.75C224.984 406.591 225 406.426 225.062 406.276C225.124 406.126 225.23 405.998 225.364 405.908C225.499 405.818 225.658 405.77 225.82 405.77C226.037 405.77 226.246 405.856 226.4 406.01C226.554 406.164 226.64 406.373 226.64 406.59Z" fill="#8F3535"/>
<path d="M82.51 416.42C81.0704 416.353 79.6643 415.963 78.3955 415.279C77.1268 414.596 76.0279 413.636 75.18 412.47C75.1385 412.417 75.1082 412.355 75.0912 412.289C75.0742 412.224 75.0707 412.155 75.081 412.088C75.0912 412.021 75.115 411.957 75.1509 411.899C75.1869 411.842 75.2341 411.792 75.2898 411.753C75.3455 411.715 75.4085 411.688 75.475 411.674C75.5415 411.66 75.61 411.66 75.6765 411.674C75.7429 411.688 75.8059 411.715 75.8615 411.754C75.9171 411.793 75.9642 411.843 76 411.9C77.87 414.6 82 416.03 83.8 415.18C83.9803 415.104 84.141 414.987 84.27 414.84C83.3605 414.44 82.5636 413.822 81.9497 413.04C81.3357 412.259 80.9237 411.339 80.75 410.36C80.52 409.09 80.34 407.36 81.38 407.14C82.82 406.82 84.7 410.29 85.38 412.92C85.5032 413.355 85.5472 413.809 85.51 414.26C86.0868 414.432 86.6935 414.48 87.29 414.4C87.5588 414.38 87.8204 414.303 88.058 414.176C88.2956 414.048 88.504 413.873 88.67 413.66C88.0119 413.164 87.466 412.534 87.0679 411.812C86.6699 411.09 86.4286 410.292 86.36 409.47C85.98 406.73 86.27 406.26 86.57 406.02C86.6672 405.946 86.7832 405.9 86.9051 405.887C87.027 405.875 87.1498 405.897 87.26 405.95C88.33 406.4 89.62 410.28 89.87 412.48C89.9 412.709 89.9 412.941 89.87 413.17C90.3011 413.336 90.7582 413.424 91.22 413.43C92.068 413.463 92.9067 413.244 93.63 412.8C93.49 412.71 93.36 412.61 93.23 412.51C92.23 411.62 91.77 410.2 91.95 408.18C92.09 406.61 92.44 405.75 93.07 405.48C93.2733 405.399 93.4958 405.378 93.7107 405.421C93.9255 405.463 94.1233 405.567 94.28 405.72C94.9551 406.466 95.4595 407.349 95.7583 408.309C96.0571 409.27 96.143 410.283 96.01 411.28C95.9232 411.695 95.7494 412.087 95.5 412.43C97.34 412.75 99.92 412.23 102.15 411.68C102.216 411.664 102.284 411.662 102.351 411.672C102.417 411.683 102.481 411.707 102.539 411.742C102.596 411.777 102.646 411.823 102.686 411.878C102.726 411.933 102.754 411.995 102.77 412.06C102.786 412.126 102.788 412.194 102.778 412.261C102.767 412.327 102.744 412.391 102.708 412.449C102.673 412.506 102.627 412.557 102.572 412.596C102.518 412.636 102.456 412.664 102.39 412.68C99.68 413.35 96.76 413.9 94.7 413.3C93.6945 414.065 92.4631 414.473 91.2 414.46C90.6395 414.453 90.0846 414.348 89.56 414.15C89.3274 414.51 89.0153 414.812 88.6477 415.032C88.2802 415.252 87.867 415.385 87.44 415.42C86.6883 415.517 85.9247 415.452 85.2 415.23C84.9667 415.623 84.6174 415.934 84.2 416.12C83.6637 416.337 83.0881 416.439 82.51 416.42ZM81.65 408.14C81.5117 408.82 81.5391 409.523 81.73 410.19C81.8711 410.99 82.2029 411.744 82.6973 412.388C83.1917 413.032 83.8341 413.547 84.57 413.89C84.556 413.653 84.5158 413.418 84.45 413.19C83.67 410.33 82.17 408.36 81.65 408.14ZM87.22 407.27C87.2265 407.96 87.2834 408.649 87.39 409.33C87.5003 410.549 88.0388 411.69 88.91 412.55C88.6639 410.704 88.0917 408.916 87.22 407.27ZM93.51 406.4C93.51 406.4 93.13 406.59 92.99 408.26C92.85 409.93 93.14 411.08 93.92 411.75C94.1046 411.9 94.306 412.027 94.52 412.13C94.783 411.849 94.969 411.504 95.06 411.13C95.2381 409.556 94.8129 407.973 93.87 406.7C93.66 406.44 93.54 406.4 93.51 406.4Z" fill="#8F3535"/>
<path d="M228.87 423.98L231.58 419.28L228.87 414.58H225.97L227.61 419.28L225.97 423.98H228.87Z" fill="#8F3535"/>
<path d="M226.16 421.73C225.826 421.752 225.491 421.704 225.176 421.591C224.86 421.478 224.572 421.301 224.327 421.072C224.083 420.843 223.888 420.566 223.755 420.259C223.622 419.952 223.554 419.62 223.554 419.285C223.554 418.95 223.622 418.619 223.755 418.312C223.888 418.004 224.083 417.728 224.327 417.499C224.572 417.269 224.86 417.093 225.176 416.98C225.491 416.866 225.826 416.819 226.16 416.84L221.56 415.92L220.33 419.64L222.39 422.78L226.16 421.73Z" fill="#8F3535"/>
<path d="M226.56 414.58H221.13L218.42 419.28L221.13 423.98H226.56L229.27 419.28L226.56 414.58ZM223.85 421.73C223.365 421.732 222.89 421.59 222.486 421.322C222.082 421.054 221.766 420.672 221.579 420.225C221.392 419.777 221.343 419.284 221.436 418.808C221.529 418.332 221.762 417.895 222.104 417.551C222.446 417.208 222.883 416.973 223.358 416.878C223.834 416.783 224.327 416.831 224.775 417.016C225.224 417.201 225.607 417.515 225.876 417.918C226.146 418.321 226.29 418.795 226.29 419.28C226.29 419.928 226.033 420.55 225.576 421.009C225.119 421.468 224.498 421.727 223.85 421.73Z" fill="#EE5858"/>
<path d="M417.89 414.26L415.88 410.77L417.89 407.28H420.04L418.83 410.77L420.04 414.26H417.89Z" fill="#EE5858"/>
<path d="M419.9 412.59C420.15 412.609 420.4 412.576 420.637 412.493C420.873 412.41 421.09 412.279 421.273 412.109C421.457 411.939 421.603 411.732 421.703 411.503C421.803 411.273 421.855 411.026 421.855 410.775C421.855 410.525 421.803 410.277 421.703 410.048C421.603 409.818 421.457 409.612 421.273 409.442C421.09 409.271 420.873 409.141 420.637 409.058C420.4 408.975 420.15 408.942 419.9 408.96L423.32 408.28L424.23 411.04L422.71 413.37L419.9 412.59Z" fill="#EE5858"/>
<path d="M419.61 407.28H423.61L425.61 410.77L423.61 414.26H419.61L417.61 410.77L419.61 407.28ZM421.61 412.59C421.97 412.592 422.323 412.487 422.624 412.288C422.925 412.09 423.159 411.806 423.299 411.474C423.438 411.141 423.475 410.775 423.406 410.421C423.337 410.068 423.165 409.742 422.911 409.487C422.656 409.231 422.332 409.057 421.979 408.986C421.626 408.915 421.259 408.95 420.926 409.088C420.593 409.225 420.308 409.459 420.108 409.758C419.907 410.058 419.8 410.41 419.8 410.77C419.799 411.01 419.845 411.247 419.936 411.468C420.027 411.69 420.161 411.891 420.33 412.06C420.499 412.229 420.701 412.363 420.922 412.454C421.143 412.545 421.381 412.592 421.62 412.59H421.61Z" fill="#8F3535"/>
<path d="M343 418.9H347.52C348.086 418.897 348.628 418.671 349.027 418.27C349.426 417.869 349.65 417.326 349.65 416.76C349.65 416.194 349.426 415.651 349.027 415.25C348.628 414.849 348.086 414.623 347.52 414.62H343C342.433 414.62 341.888 414.846 341.487 415.247C341.086 415.648 340.86 416.193 340.86 416.76C340.86 417.328 341.086 417.872 341.487 418.273C341.888 418.675 342.433 418.9 343 418.9Z" fill="#8F3535"/>
<path d="M335.73 414.86C336.15 414.097 336.783 413.474 337.553 413.067C338.322 412.659 339.194 412.486 340.061 412.569C340.928 412.651 341.751 412.986 342.43 413.531C343.109 414.076 343.614 414.807 343.882 415.636C344.15 416.464 344.17 417.353 343.939 418.192C343.708 419.031 343.236 419.785 342.582 420.359C341.928 420.934 341.12 421.305 340.258 421.426C339.396 421.547 338.517 421.412 337.73 421.04C336.649 420.482 335.832 419.52 335.457 418.362C335.082 417.204 335.18 415.946 335.73 414.86Z" fill="#EE5858"/>
<path d="M336.95 421.039L338.189 421.623L342.495 412.487L341.256 411.903L336.95 421.039Z" fill="#8F3535"/>
</svg>
